<svg xmlns="http://www.w3.org/2000/svg" width="1254" height="836" viewBox="0 0 1254 836">
<g>
<path d="M 528.15 514.11 L 522.11 519.00 L 496.25 519.00 C469.13,519.00 465.83,518.50 467.31,514.64 C467.84,513.25 469.73,513.00 479.72,512.97 L 491.50 512.94 L 513.00 493.00 L 560.99 493.00 L 565.25 489.25 C567.59,487.19 572.31,482.76 575.75,479.41 L 582.00 473.32 L 582.00 409.73 L 575.41 402.36 L 568.82 395.00 L 561.11 395.00 C553.69,395.00 553.27,395.13 550.20,398.30 C547.92,400.64 547.00,402.54 547.00,404.87 C547.00,409.19 542.36,414.00 538.21,414.00 C534.42,414.00 530.00,409.70 530.00,406.00 C530.00,401.45 533.49,398.00 538.09,398.00 C541.31,398.00 542.85,397.26 546.38,394.00 C550.37,390.33 551.18,390.00 556.30,390.00 C559.37,390.00 562.12,389.61 562.41,389.14 C563.17,387.92 549.55,375.00 547.51,375.00 C546.58,375.00 540.24,380.48 533.41,387.17 L 521.00 399.34 L 521.00 404.17 C521.00,410.10 518.59,413.00 513.65,413.00 C509.24,413.00 505.00,409.16 505.00,405.18 C505.00,400.81 508.45,397.00 512.42,397.00 C515.34,397.00 519.00,394.59 519.00,392.67 C519.00,392.30 513.15,392.00 506.00,392.00 L 493.00 392.00 L 493.00 395.77 C493.00,399.47 492.85,399.62 484.37,404.25 L 475.75 408.97 L 467.52 404.48 L 459.28 399.99 L 458.64 393.85 C458.60,393.47 458.56,393.10 458.53,392.74 C457.87,386.54 457.58,383.73 458.71,381.73 C459.70,379.97 461.80,378.83 465.73,376.52 C469.98,374.04 474.34,372.00 475.43,372.00 C476.51,372.00 480.69,373.89 484.72,376.19 C490.55,379.53 492.20,381.00 492.83,383.44 L 493.63 386.50 L 509.57 386.77 L 525.52 387.05 L 531.48 381.02 L 537.44 375.00 L 519.12 375.00 L 509.88 367.00 L 464.89 367.00 L 458.26 371.00 C454.61,373.20 451.37,374.98 451.06,374.96 C450.75,374.94 446.90,372.79 442.50,370.17 L 434.50 365.42 L 434.21 355.69 C433.96,347.13 434.14,345.87 435.71,345.23 C436.70,344.83 440.54,342.77 444.25,340.66 L 451.01 336.82 L 457.29 340.66 C460.74,342.77 464.46,345.00 465.54,345.60 C467.15,346.51 467.55,347.98 467.79,353.85 L 468.09 361.00 L 511.42 361.00 L 515.75 365.25 L 520.08 369.50 L 551.85 370.50 L 565.67 383.64 C584.44,401.48 585.49,402.32 586.91,400.61 C587.83,399.51 584.43,395.73 569.87,381.62 L 551.68 364.00 L 528.13 364.00 L 521.82 358.50 C515.74,353.20 515.31,353.00 509.75,353.00 C504.15,353.00 503.81,352.84 498.00,347.50 C493.06,342.96 491.39,342.00 488.42,342.00 C486.33,342.00 483.75,342.84 482.27,344.00 C479.22,346.40 476.90,346.52 472.91,344.45 C469.01,342.44 467.51,338.60 469.11,334.73 C471.36,329.30 478.56,328.41 483.15,333.00 C484.91,334.76 487.26,336.03 488.83,336.07 C492.80,336.17 494.21,336.99 500.44,342.75 C506.02,347.91 506.21,348.00 512.34,348.00 C518.56,348.00 518.57,348.00 524.00,353.50 L 529.43 359.00 L 537.72 359.00 C542.27,359.00 546.00,358.73 546.00,358.41 C546.00,358.08 544.40,355.95 542.45,353.67 C540.50,351.40 539.38,349.37 539.96,349.18 C540.54,348.99 540.76,348.42 540.45,347.93 C538.82,345.28 544.34,349.12 550.15,354.66 C553.81,358.15 557.30,361.00 557.90,361.00 C558.51,361.00 559.01,359.99 559.02,358.75 C559.03,357.10 559.26,356.86 559.89,357.86 C560.51,358.83 560.87,358.88 561.15,358.06 C561.37,357.39 562.29,357.17 563.27,357.55 C565.14,358.27 565.73,363.59 564.00,364.17 C563.45,364.35 562.57,366.02 562.04,367.88 L 561.07 371.25 L 564.47 370.70 C567.76,370.17 568.47,370.72 584.61,386.53 C593.81,395.54 601.82,402.62 602.42,402.27 C606.62,399.78 609.00,397.29 609.54,394.80 C610.05,392.51 610.46,392.14 611.53,393.03 C612.27,393.64 612.61,394.86 612.27,395.74 C611.91,396.68 612.07,397.07 612.67,396.70 C613.28,396.32 613.75,397.85 613.85,400.61 C613.97,403.83 613.69,404.92 612.86,404.41 C612.12,403.95 611.96,404.13 612.43,404.89 C612.88,405.61 611.55,407.85 609.10,410.50 C605.31,414.62 604.47,418.00 607.24,418.00 C607.90,418.00 608.10,421.71 607.79,428.55 L 607.32 439.11 L 602.09 444.41 L 596.86 449.71 L 596.68 466.63 L 596.50 483.55 L 592.15 488.71 C587.18,494.61 580.50,499.40 578.39,498.60 C574.59,497.14 575.68,494.66 583.33,487.38 L 591.00 480.07 L 591.00 444.30 L 597.61 438.04 C603.81,432.18 604.19,431.57 603.66,428.30 C603.35,426.39 602.57,424.19 601.93,423.41 C600.55,421.76 595.70,421.55 592.93,423.04 C590.54,424.32 590.31,430.02 592.52,433.39 C593.96,435.59 593.86,435.90 590.77,438.92 L 587.50 442.12 L 587.35 460.14 L 587.21 478.16 L 578.60 486.95 C573.15,492.52 570.00,496.54 570.00,497.91 C570.00,499.10 568.24,501.96 566.09,504.27 L 562.19 508.45 L 548.19 508.84 L 534.20 509.22 ZM 490.06 605.00 L 489.50 628.50 L 483.96 628.79 C480.91,628.96 478.10,628.77 477.71,628.38 C477.32,627.99 477.00,612.17 477.00,593.23 L 477.00 558.80 L 497.75 559.20 C514.70,559.52 519.23,559.92 522.49,561.35 C530.75,564.97 534.94,571.62 534.98,581.17 C535.02,591.10 530.69,598.01 522.22,601.55 L 518.93 602.93 L 527.93 615.12 C532.87,621.83 536.69,627.70 536.40,628.16 C536.12,628.62 533.10,628.99 529.69,628.98 L 523.50 628.97 L 514.66 616.98 L 505.82 605.00 ZM 605.05 510.50 L 595.72 520.00 L 588.42 520.00 C580.52,520.00 578.80,518.98 581.56,515.94 C582.86,514.50 584.64,514.00 588.49,514.00 L 593.66 514.00 L 602.33 504.37 L 611.00 494.75 L 611.00 456.42 L 615.50 452.00 C619.49,448.08 621.39,444.00 619.22,444.00 C618.79,444.00 615.90,446.59 612.80,449.75 L 607.16 455.50 L 606.48 473.00 L 605.80 490.50 L 596.67 499.75 C587.80,508.74 587.41,509.00 582.97,509.00 C578.90,509.00 577.78,509.55 572.79,514.00 L 567.18 519.00 L 551.09 519.00 C542.24,519.00 535.00,518.63 535.00,518.17 C535.00,517.72 536.04,516.37 537.31,515.17 C539.44,513.18 540.67,513.00 552.19,513.00 C562.70,513.00 564.98,512.73 566.13,511.33 C566.88,510.42 569.68,507.94 572.34,505.83 C576.25,502.73 578.00,502.00 581.48,502.00 C585.40,502.00 586.26,501.50 591.32,496.25 C595.98,491.41 598.41,489.13 599.67,486.33 C601.03,483.30 601.03,479.65 601.03,471.48 C601.03,470.50 601.03,469.46 601.03,468.34 L 601.06 451.50 L 612.00 439.95 L 612.00 427.66 C612.00,415.53 612.04,415.34 614.75,412.86 C618.00,409.88 621.94,409.32 622.12,411.81 C622.32,414.66 621.87,416.43 620.57,418.00 C619.88,418.83 619.24,421.32 619.13,423.55 C618.98,426.73 619.48,428.10 621.47,429.97 C623.87,432.23 624.00,432.90 624.00,442.98 L 624.00 453.61 L 631.00 460.39 L 631.00 488.19 L 637.66 495.10 C643.85,501.50 644.63,502.00 648.57,502.00 C651.99,502.00 653.77,502.75 657.66,505.83 C660.32,507.94 663.12,510.42 663.87,511.33 C664.63,512.25 666.09,513.00 667.12,513.00 C668.54,513.00 669.00,513.73 669.00,516.00 C669.00,518.68 668.67,519.00 665.94,519.00 C663.64,519.00 661.57,517.76 657.59,514.00 C652.69,509.36 651.94,509.00 647.28,509.00 L 642.25 509.00 L 623.00 488.95 L 623.00 480.58 C623.00,474.40 623.36,472.08 624.37,471.69 C626.09,471.03 627.03,465.25 625.91,462.28 C624.88,459.56 620.70,458.36 617.43,459.85 C615.40,460.78 615.00,461.67 615.00,465.32 C615.00,468.42 615.58,470.22 617.00,471.50 C618.75,473.09 619.00,474.58 619.00,483.57 L 619.00 493.84 L 636.25 514.00 L 641.57 514.00 C645.89,514.00 647.17,514.41 648.40,516.16 C649.23,517.35 649.68,518.70 649.40,519.16 C649.11,519.62 645.59,520.00 641.56,520.00 L 634.25 520.00 L 625.53 510.50 C620.73,505.27 616.26,501.00 615.60,501.00 C614.93,501.00 610.19,505.27 605.05,510.50 ZM 335.50 620.72 L 331.50 628.95 L 325.81 628.97 C322.68,628.99 319.93,628.66 319.70,628.25 C319.47,627.84 326.25,612.09 334.77,593.25 L 350.26 559.00 L 362.85 559.00 L 365.54 564.75 C381.98,599.95 394.03,627.64 393.24,628.42 C392.93,628.74 390.10,629.00 386.97,629.00 L 381.28 629.00 L 373.96 613.00 L 359.48 612.81 C351.52,612.71 343.76,612.60 342.25,612.56 C339.78,612.51 339.09,613.33 335.50,620.72 ZM 446.20 626.70 C441.78,628.87 438.82,629.56 433.00,629.76 C419.82,630.24 410.20,625.23 404.50,614.92 L 401.50 609.50 L 400.88 559.00 L 413.50 559.00 L 413.59 581.75 C413.67,602.97 413.82,604.78 415.83,608.69 C417.01,611.00 419.60,614.12 421.58,615.63 C424.64,617.96 426.14,618.38 431.57,618.38 C437.19,618.38 438.43,618.01 441.73,615.36 C448.03,610.31 448.91,606.10 448.96,580.75 L 449.00 559.00 L 461.00 559.00 L 461.00 582.32 C461.00,608.20 460.31,612.46 454.98,619.71 C452.99,622.41 449.88,624.90 446.20,626.70 ZM 688.61 623.75 L 688.50 628.50 L 663.43 628.77 C649.65,628.91 638.06,628.73 637.68,628.35 C637.31,627.97 637.00,612.22 637.00,593.33 L 637.00 559.00 L 648.25 559.12 C654.44,559.18 658.74,559.43 657.81,559.68 C656.71,559.97 656.33,560.70 656.74,561.77 C657.66,564.17 662.22,567.93 664.25,567.97 C665.21,567.99 666.00,568.45 666.00,569.00 C666.00,569.59 662.50,570.00 657.50,570.00 L 649.00 570.00 L 649.00 577.93 L 649.00 578.48 C649.00,582.83 649.00,585.36 650.25,586.82 C651.99,588.87 656.16,588.85 666.15,588.79 L 667.06 588.79 C676.01,588.74 682.52,589.12 683.12,589.72 C683.68,590.28 683.99,592.48 683.82,594.62 L 683.50 598.50 L 666.21 598.77 L 648.93 599.05 L 649.21 608.27 L 649.50 617.50 L 669.00 618.05 C679.72,618.36 688.55,618.70 688.61,618.80 C688.68,618.91 688.68,621.14 688.61,623.75 ZM 626.00 618.05 L 626.00 629.00 L 579.00 629.00 L 579.00 559.00 L 590.97 559.00 L 591.23 588.25 L 591.50 617.50 ZM 509.55 334.84 C509.96,338.02 509.72,340.08 508.79,341.32 C507.48,343.07 507.37,343.06 505.71,341.24 C504.77,340.20 504.00,337.80 504.00,335.92 C504.00,332.89 502.93,331.51 494.57,323.75 C489.39,318.94 484.62,315.00 483.96,315.00 C483.31,315.00 480.17,316.39 476.98,318.09 L 471.18 321.18 L 462.84 316.84 L 454.50 312.50 L 454.21 303.74 C453.94,295.47 454.06,294.85 456.45,292.63 C460.37,289.00 470.37,283.99 471.87,284.92 C472.58,285.36 473.02,285.93 472.84,286.19 C472.65,286.45 474.75,288.89 477.50,291.61 C480.78,294.86 483.27,296.51 484.75,296.42 C486.89,296.28 487.00,296.63 487.00,303.48 C487.00,310.67 488.00,312.94 491.68,314.12 C492.34,314.33 496.49,318.03 500.91,322.34 C508.18,329.42 509.01,330.63 509.55,334.84 ZM 561.76 593.75 L 561.50 628.50 L 555.75 628.80 L 550.00 629.10 L 550.00 559.00 L 562.03 559.00 ZM 490.00 570.00 L 490.00 594.00 L 500.25 593.99 C517.26,593.99 522.00,591.36 522.00,581.95 C522.00,575.46 521.38,574.23 516.92,571.96 C513.76,570.35 511.02,570.00 501.54,570.00 ZM 710.72 621.25 L 707.13 629.00 L 701.46 629.00 C695.90,629.00 695.80,628.95 696.41,626.48 C697.51,622.12 709.57,597.56 711.32,596.13 C712.79,594.92 713.00,595.01 713.00,596.81 C713.00,601.05 715.44,601.99 726.82,602.13 C734.18,602.22 736.41,602.49 734.00,603.00 C731.86,603.45 731.27,603.83 732.50,603.97 C734.21,604.17 734.13,604.30 732.00,604.92 C730.51,605.35 729.56,606.32 729.64,607.32 C729.72,608.26 729.06,609.01 728.14,609.02 C726.72,609.03 726.70,609.16 728.00,610.00 C729.04,610.67 727.18,610.97 721.92,610.98 C716.53,611.00 714.33,611.36 714.32,612.25 C714.32,612.94 712.70,616.99 710.72,621.25 ZM 653.75 497.27 C653.53,497.95 652.32,498.65 651.08,498.83 C649.37,499.08 646.98,497.34 641.40,491.76 L 634.00 484.35 L 634.00 456.80 L 631.00 454.00 C628.05,451.25 628.00,451.02 628.00,441.21 C628.00,433.10 628.29,431.10 629.55,430.62 C630.41,430.29 630.85,430.43 630.55,430.93 C630.24,431.42 630.51,432.00 631.15,432.22 C631.92,432.47 632.24,435.08 632.10,439.95 C631.89,447.16 631.95,447.37 635.50,451.00 C637.91,453.46 639.05,455.51 638.91,457.10 C638.79,458.42 638.76,464.14 638.84,469.81 L 639.00 480.13 L 646.58 488.08 C650.74,492.46 653.97,496.59 653.75,497.27 ZM 502.00 512.14 C502.00,512.61 506.11,513.00 511.14,513.00 L 520.28 513.00 L 533.89 502.00 L 546.32 502.00 C556.15,502.00 559.02,501.69 560.00,500.50 C561.10,499.17 558.57,499.00 538.21,499.00 L 515.18 499.00 L 508.59 505.14 C504.97,508.52 502.00,511.67 502.00,512.14 ZM 348.87 601.09 C355.44,601.93 365.22,601.98 367.10,601.18 C368.45,600.60 367.84,598.59 362.98,587.69 C359.85,580.64 356.90,574.86 356.44,574.85 C355.98,574.84 353.05,580.60 349.92,587.66 L 344.24 600.50 ZM 660.67 487.64 C660.67,488.35 659.45,489.35 657.96,489.86 C655.47,490.73 654.73,490.27 648.57,484.07 L 641.89 477.34 L 642.00 465.92 C642.06,459.64 642.09,453.73 642.06,452.78 C642.03,451.84 640.61,449.49 638.92,447.56 C635.71,443.90 635.37,440.74 638.15,440.21 C639.19,440.01 640.14,440.95 640.80,442.85 C641.37,444.48 642.43,445.78 643.16,445.75 C643.30,445.74 643.43,445.73 643.55,445.73 C645.02,445.66 646.01,445.61 646.67,446.05 C648.00,446.94 648.00,449.84 648.01,458.61 L 648.01 459.75 L 648.02 473.50 L 654.34 479.93 C657.82,483.47 660.67,486.94 660.67,487.64 ZM 702.58 510.50 C702.55,512.42 702.26,514.00 701.95,514.00 C701.63,514.00 700.08,512.65 698.50,511.00 L 695.63 508.00 L 667.13 508.00 L 663.63 503.72 C660.09,499.40 657.41,494.00 658.80,494.00 C660.04,494.00 664.38,497.28 666.26,499.64 C667.91,501.71 668.97,501.87 682.29,502.18 C695.46,502.48 696.74,502.67 698.97,504.75 C700.29,505.99 701.66,507.00 702.01,507.00 C702.36,507.00 702.61,508.58 702.58,510.50 ZM 603.80 395.80 C603.14,396.46 602.33,397.00 602.00,397.00 C601.67,397.00 600.86,396.46 600.20,395.80 C598.69,394.29 598.53,373.41 600.02,372.49 C600.58,372.14 600.77,371.44 600.45,370.92 C600.13,370.41 601.03,370.51 602.44,371.15 C604.96,372.30 605.00,372.48 605.00,383.46 C605.00,390.79 604.59,395.01 603.80,395.80 ZM 511.43 302.43 C509.29,304.56 504.17,304.40 500.36,302.08 C496.28,299.59 495.83,298.76 495.75,293.49 C495.68,288.91 496.88,286.66 500.42,284.78 C502.29,283.78 502.36,283.84 501.13,285.34 C500.32,286.32 500.19,287.00 500.82,287.00 C501.84,287.00 501.77,288.15 500.49,292.51 C499.53,295.76 503.52,299.28 507.63,298.80 C509.48,298.58 511.00,298.79 511.00,299.26 C511.00,299.73 511.45,299.84 512.00,299.50 C513.59,298.52 513.16,300.70 511.43,302.43 ZM 530.08 320.68 C530.68,321.28 531.02,322.83 530.83,324.12 L 530.50 326.47 L 528.25 323.60 C527.01,322.02 526.00,319.42 526.00,317.82 C526.00,314.39 529.93,310.00 532.99,310.00 C535.22,310.00 535.09,310.29 530.75,315.07 C528.74,317.28 528.53,319.13 530.08,320.68 ZM 474.20 340.80 C475.83,342.43 477.55,342.31 479.43,340.43 C481.69,338.16 481.37,336.12 478.53,334.83 C474.38,332.94 471.00,337.60 474.20,340.80 ZM 535.40 407.49 C537.26,410.32 539.18,410.69 540.95,408.56 C542.99,406.11 541.84,402.54 538.91,402.20 C535.04,401.75 533.33,404.33 535.40,407.49 ZM 576.55 368.09 C577.36,369.39 576.77,369.22 574.22,367.44 C572.44,366.19 572.00,364.92 572.00,360.94 C572.00,358.22 572.26,356.00 572.57,356.00 C574.13,356.00 576.00,359.19 576.00,361.85 C576.00,363.49 576.56,365.10 577.25,365.42 C578.25,365.88 578.25,366.12 577.24,366.59 C576.55,366.91 576.24,367.58 576.55,368.09 ZM 511.05 407.24 C513.62,409.32 514.21,409.39 515.80,407.80 C518.60,405.00 515.88,400.27 512.14,401.46 C509.08,402.43 508.55,405.22 511.05,407.24 ZM 687.55 517.25 C687.01,518.49 685.64,519.00 682.89,519.00 C680.75,519.00 679.00,518.55 679.00,518.00 C679.00,517.45 679.93,517.00 681.07,517.00 C682.68,517.00 683.00,516.56 682.50,515.00 C681.94,513.23 682.32,513.00 685.81,513.00 C688.27,513.00 690.27,513.63 691.13,514.66 C692.37,516.17 692.29,516.22 690.24,515.12 C688.99,514.46 688.05,514.27 688.14,514.71 C688.24,515.14 687.97,516.29 687.55,517.25 ZM 452.34 410.83 C450.85,413.19 449.54,413.25 447.54,411.04 C446.05,409.40 445.95,408.76 446.98,407.52 C449.80,404.13 454.66,407.14 452.34,410.83 ZM 592.23 382.10 C592.87,386.45 591.46,386.57 588.63,382.40 C586.70,379.57 586.41,378.47 587.32,377.47 C588.98,375.66 591.65,378.19 592.23,382.10 ZM 589.55 358.53 C589.20,363.01 588.72,363.45 586.66,361.18 C584.08,358.33 584.49,355.00 587.42,355.00 C589.57,355.00 589.80,355.39 589.55,358.53 ZM 565.00 345.86 C565.00,347.04 564.55,348.00 564.00,348.00 C563.45,348.00 562.99,347.21 562.98,346.25 C562.97,344.75 562.83,344.72 562.00,346.00 C561.30,347.09 561.03,347.14 561.02,346.19 C561.01,345.47 560.55,345.16 560.00,345.50 C559.43,345.85 559.00,345.01 559.00,343.56 C559.00,342.15 559.56,341.01 560.25,341.03 C562.47,341.09 565.00,343.66 565.00,345.86 ZM 628.82 424.25 C628.44,426.93 624.31,427.97 623.41,425.62 C622.55,423.38 623.78,422.00 626.63,422.00 C628.66,422.00 629.08,422.43 628.82,424.25 ZM 478.81 429.74 C478.63,430.69 477.69,431.63 476.74,431.81 C474.67,432.21 473.28,429.32 474.80,427.80 C476.32,426.28 479.21,427.67 478.81,429.74 ZM 499.81 411.74 C499.63,412.69 498.69,413.63 497.74,413.81 C495.67,414.21 494.28,411.32 495.80,409.80 C497.32,408.28 500.21,409.67 499.81,411.74 ZM 599.33 354.41 C599.65,355.25 599.41,356.24 598.80,356.62 C598.09,357.06 597.98,356.85 598.48,356.02 C599.01,355.17 598.82,354.90 597.89,355.21 C596.07,355.82 594.07,353.14 594.03,350.03 L 594.00 347.55 L 595.56 349.78 C596.41,351.00 596.84,352.45 596.51,352.99 C596.17,353.54 596.53,353.73 597.32,353.43 C598.10,353.13 599.01,353.57 599.33,354.41 ZM 445.81 313.74 C445.63,314.69 444.75,315.62 443.86,315.79 C441.97,316.15 440.50,313.10 441.90,311.70 C443.35,310.25 446.20,311.74 445.81,313.74 ZM 599.79 428.86 C599.62,429.75 598.75,430.62 597.86,430.79 C596.04,431.14 594.48,428.12 595.80,426.80 C597.12,425.48 600.14,427.04 599.79,428.86 ZM 430.81 332.74 C430.46,334.56 427.91,335.57 426.70,334.37 C425.13,332.80 426.13,331.00 428.57,331.00 C430.48,331.00 431.06,331.45 430.81,332.74 ZM 622.81 465.74 C622.46,467.56 619.91,468.57 618.70,467.37 C617.13,465.80 618.13,464.00 620.57,464.00 C622.48,464.00 623.06,464.45 622.81,465.74 ZM 508.50 377.50 C508.50,379.95 506.62,380.45 504.96,378.46 C503.84,377.11 503.86,376.70 505.06,375.94 C507.06,374.68 508.50,375.33 508.50,377.50 ZM 489.82 353.67 C489.39,355.89 487.57,356.40 486.16,354.69 C484.80,353.05 485.61,352.00 488.24,352.00 C489.48,352.00 490.03,352.58 489.82,353.67 Z" fill="rgb(151,111,30)"/>
<path d="M 599.33 354.41 C599.01,353.57 598.10,353.13 597.32,353.43 C596.53,353.73 596.17,353.54 596.51,352.99 C596.84,352.45 596.41,351.00 595.56,349.78 L 594.21 347.86 C594.54,346.32 595.27,345.17 596.61,343.92 C599.11,341.60 599.19,341.19 598.59,333.85 L 597.97 326.19 L 582.00 310.65 L 582.00 289.08 L 582.00 267.50 L 578.50 264.71 C575.95,262.67 575.00,261.13 575.00,259.01 C575.00,255.28 579.04,250.42 581.39,251.32 C582.96,251.92 582.93,252.16 581.05,254.18 C579.92,255.39 579.00,256.97 579.00,257.69 C579.00,259.14 582.52,263.00 583.85,263.00 C585.66,263.00 587.94,259.29 587.51,257.05 C586.91,253.95 587.84,252.62 589.59,254.07 C591.64,255.77 591.32,261.33 589.00,264.27 C587.14,266.63 587.00,268.33 587.00,287.75 L 587.00 308.68 L 595.50 316.41 L 604.00 324.15 L 604.00 333.03 C604.00,341.17 604.21,342.12 606.50,344.41 C609.53,347.44 609.66,350.20 606.97,354.55 L 604.94 357.83 L 609.93 363.12 C614.84,368.33 614.93,368.52 615.21,375.45 C615.44,380.92 615.84,382.50 617.00,382.50 C618.23,382.50 618.59,380.19 619.01,369.79 C619.52,357.10 619.53,357.08 622.76,353.75 C625.62,350.80 626.00,349.75 626.00,344.88 C626.00,340.24 625.60,339.01 623.50,337.19 C620.34,334.44 620.10,329.13 623.00,326.50 C624.67,324.99 625.00,323.42 625.00,316.92 L 625.00 309.16 L 630.13 304.66 C634.12,301.18 635.55,300.43 636.52,301.34 C637.51,302.25 636.96,303.39 633.89,306.73 C630.23,310.71 630.00,311.33 630.00,317.25 C630.00,323.00 630.26,323.79 633.00,326.19 C636.71,329.44 636.86,332.82 633.50,336.82 C630.95,339.84 630.23,343.41 631.95,344.47 C632.48,344.79 634.38,343.74 636.19,342.12 C639.39,339.26 639.50,338.90 639.99,329.60 L 640.50 320.03 L 653.21 307.05 C660.21,299.91 666.20,294.51 666.53,295.05 C667.48,296.59 666.21,299.39 663.91,300.83 C662.74,301.55 662.09,301.66 662.45,301.07 C663.45,299.46 661.43,299.78 660.04,301.46 C659.37,302.26 659.11,303.36 659.45,303.92 C660.35,305.38 652.97,313.20 651.29,312.56 C650.52,312.26 650.17,312.46 650.50,313.00 C650.83,313.53 649.50,315.57 647.55,317.52 L 644.00 321.07 L 644.00 340.54 L 625.00 359.46 L 625.00 378.58 C625.00,396.28 625.14,397.82 626.96,399.46 C628.86,401.18 629.38,400.77 646.46,383.90 L 664.00 366.57 L 664.00 353.91 C664.00,340.58 663.31,338.41 659.30,339.18 C657.70,339.49 657.47,340.91 657.22,351.96 L 656.94 364.40 L 651.02 370.55 C647.77,373.94 644.81,377.92 644.43,379.41 C643.46,383.30 640.59,382.42 640.18,378.10 C639.89,375.15 640.56,373.98 645.33,369.10 L 650.82 363.50 L 651.42 350.04 L 652.01 336.57 L 655.76 332.70 C662.71,325.52 669.09,324.00 673.55,328.45 C676.81,331.72 676.64,334.92 673.00,339.00 C670.15,342.19 670.00,342.80 670.00,351.12 C670.00,355.94 670.36,360.10 670.79,360.37 C671.83,361.01 694.00,340.20 694.00,338.58 C694.00,337.06 696.95,336.90 697.12,338.42 C697.43,341.25 696.30,343.01 689.66,349.99 L 682.52 357.50 L 699.06 358.08 L 704.86 353.04 C710.48,348.15 710.84,348.00 716.87,348.00 C722.88,348.00 723.25,347.85 728.03,343.37 C732.24,339.44 733.22,338.93 734.54,340.03 C735.91,341.17 735.64,341.79 732.30,345.25 C727.52,350.19 722.13,353.00 717.44,353.00 C714.51,353.00 712.78,353.91 708.66,357.61 C705.84,360.15 702.48,362.63 701.20,363.11 C699.92,363.60 693.99,364.00 688.03,364.00 L 677.19 364.00 L 659.59 381.11 C649.92,390.51 642.00,398.81 642.00,399.55 C642.00,401.59 643.85,402.28 645.38,400.81 C646.14,400.09 653.76,392.64 662.32,384.25 L 677.89 369.00 L 707.82 369.00 L 717.94 361.00 L 738.85 361.00 C759.70,361.00 759.77,360.99 760.37,358.75 C760.70,357.51 760.98,355.58 760.99,354.45 C761.00,352.07 767.46,345.53 770.78,344.53 C772.04,344.15 773.96,342.89 775.05,341.72 C777.01,339.61 777.07,339.61 780.27,341.45 C784.21,343.72 787.09,346.57 786.27,347.39 C785.94,347.73 786.63,348.00 787.81,348.00 C789.17,348.00 790.51,349.08 791.47,350.95 C793.12,354.13 793.57,362.00 792.11,362.00 C791.62,362.00 791.28,362.77 791.36,363.72 C791.45,364.80 789.78,366.37 786.84,367.98 C784.28,369.38 781.32,371.31 780.26,372.26 C777.57,374.70 776.75,374.53 768.78,369.87 L 761.71 365.74 L 740.41 366.20 L 719.10 366.65 L 714.57 370.82 L 710.04 375.00 L 691.50 375.04 L 697.68 381.04 L 703.85 387.05 L 719.68 386.78 L 735.50 386.50 L 735.82 383.75 C736.08,381.49 737.52,380.18 743.82,376.51 C748.04,374.05 752.40,372.04 753.50,372.04 C754.60,372.04 757.36,373.27 759.64,374.77 C761.92,376.27 765.18,378.27 766.89,379.20 L 770.00 380.91 L 769.99 390.20 L 769.99 399.50 L 761.83 404.19 L 753.68 408.87 L 746.09 404.77 C736.07,399.36 736.00,399.29 736.00,395.38 L 736.00 392.00 L 709.76 392.00 L 711.24 394.25 C712.31,395.86 714.06,396.66 717.36,397.04 C722.81,397.69 724.92,399.92 724.97,405.08 C725.01,409.76 721.69,413.00 716.86,413.00 C711.98,413.00 708.55,409.25 708.55,403.92 C708.55,400.16 707.87,399.28 695.94,387.48 C689.00,380.61 682.54,375.00 681.58,375.00 C679.82,375.00 667.00,386.58 667.00,388.16 C667.00,388.62 669.46,389.00 672.47,389.00 C677.53,389.00 678.31,389.33 683.00,393.50 C687.18,397.21 688.75,398.00 692.01,398.00 C695.36,398.00 696.18,398.44 697.47,400.95 C699.69,405.23 699.36,408.37 696.36,411.36 C691.00,416.72 683.02,413.17 682.62,405.24 C682.46,402.14 681.64,400.23 679.51,398.01 C676.79,395.17 676.19,395.00 668.85,395.00 L 661.08 395.00 L 656.29 400.12 C653.66,402.93 650.49,406.65 649.26,408.38 L 647.02 411.53 L 647.67 442.68 L 647.80 448.99 C647.62,447.32 647.29,446.47 646.67,446.05 C646.01,445.61 645.02,445.66 643.55,445.73 C643.43,445.73 643.30,445.74 643.16,445.75 C642.43,445.78 641.37,444.48 640.80,442.85 C640.14,440.95 639.19,440.01 638.15,440.21 C635.75,440.67 635.67,443.08 637.76,446.09 C634.12,441.46 634.24,439.11 638.03,437.68 C641.77,436.27 641.57,433.62 637.68,433.18 C634.04,432.76 632.55,433.89 632.13,438.15 C632.15,434.44 631.82,432.44 631.15,432.22 C630.51,432.00 630.24,431.42 630.55,430.93 C630.85,430.43 630.41,430.29 629.55,430.62 C629.34,430.70 629.16,430.82 629.00,431.01 C629.44,430.15 630.08,429.39 631.00,428.35 C634.64,424.20 634.74,422.64 631.55,419.45 C628.42,416.33 624.58,416.33 621.45,419.45 C620.14,420.77 619.36,422.27 619.12,423.78 C619.13,423.70 619.13,423.63 619.13,423.55 C619.24,421.32 619.88,418.83 620.57,418.00 C621.87,416.43 622.32,414.66 622.12,411.81 C621.94,409.32 618.00,409.88 614.75,412.86 C612.07,415.31 612.00,415.53 612.00,427.27 L 612.00 414.58 L 615.46 411.04 C618.84,407.58 618.94,407.26 619.13,398.75 C619.35,389.53 619.03,388.39 616.54,389.35 C615.32,389.81 615.00,391.68 615.00,398.22 C615.00,406.48 614.99,406.51 611.44,409.50 L 607.89 412.50 L 607.79 419.54 C607.67,418.52 607.49,418.00 607.24,418.00 C604.47,418.00 605.31,414.62 609.10,410.50 C611.55,407.85 612.88,405.61 612.43,404.89 C611.96,404.13 612.12,403.95 612.86,404.41 C613.69,404.92 613.97,403.83 613.85,400.61 C613.75,397.85 613.28,396.32 612.67,396.70 C612.07,397.07 611.91,396.68 612.27,395.74 C612.61,394.86 612.27,393.64 611.53,393.03 C610.46,392.14 610.05,392.51 609.54,394.80 C609.44,395.29 609.25,395.79 609.00,396.29 L 609.00 369.72 L 601.50 361.87 C594.83,354.89 594.00,353.60 594.00,350.19 C594.00,349.89 594.01,349.60 594.02,349.33 L 594.03 350.03 C594.07,353.14 596.07,355.82 597.89,355.21 C598.82,354.90 599.01,355.17 598.48,356.02 C597.98,356.85 598.09,357.06 598.80,356.62 C599.41,356.24 599.65,355.25 599.33,354.41 ZM 792.00 605.00 L 792.00 629.00 L 786.67 629.00 C783.73,629.00 781.03,628.70 780.67,628.33 C780.30,627.97 780.00,612.22 780.00,593.33 L 780.00 559.00 L 797.29 559.00 C828.54,559.00 837.35,563.83 837.39,581.00 C837.41,591.58 835.11,595.50 825.37,601.50 L 822.12 603.50 L 826.31 609.22 C836.42,623.04 839.00,626.84 839.00,627.93 C839.00,628.73 836.88,629.00 832.28,628.80 L 825.55 628.50 L 817.03 616.75 L 808.50 605.00 ZM 589.55 358.53 C589.80,355.39 589.57,355.00 587.42,355.00 C586.02,355.00 585.20,355.76 585.00,356.86 L 585.00 330.20 L 577.29 323.00 C570.16,316.34 569.33,315.85 566.14,316.36 C561.96,317.04 560.03,315.78 547.57,304.26 L 538.64 296.00 L 518.24 296.00 L 514.24 300.00 C513.34,300.90 512.47,301.65 511.61,302.24 C513.19,300.55 513.53,298.55 512.00,299.50 C511.45,299.84 511.00,299.73 511.00,299.26 C511.00,298.79 509.48,298.58 507.63,298.80 C507.34,298.83 507.06,298.84 506.77,298.84 C507.70,298.67 508.69,298.20 509.78,297.44 C512.23,295.73 512.79,291.19 510.80,289.20 C508.74,287.14 503.29,287.74 501.56,290.22 C501.27,290.63 501.02,291.01 500.82,291.36 C501.78,287.94 501.75,287.00 500.82,287.00 C500.19,287.00 500.32,286.32 501.13,285.34 C502.36,283.84 502.29,283.78 500.42,284.78 C497.33,286.42 496.02,288.34 495.79,291.85 C496.05,285.48 499.10,283.00 506.45,283.00 C511.30,283.00 512.07,283.32 514.87,286.50 L 517.94 290.00 L 529.47 290.00 C539.73,290.00 541.00,289.81 541.00,288.27 C541.00,286.19 524.15,269.00 522.12,269.00 C521.33,269.00 518.26,270.15 515.30,271.55 L 509.90 274.11 L 501.45 269.50 L 493.00 264.90 L 493.00 246.27 L 500.98 241.63 C505.36,239.09 509.33,237.00 509.79,237.00 C510.24,237.00 514.30,239.08 518.81,241.63 L 527.00 246.27 L 527.00 264.83 L 533.17 270.42 C536.56,273.49 539.71,276.00 540.17,276.00 C540.63,276.00 541.00,274.09 541.00,271.75 C541.00,268.32 540.42,266.95 538.00,264.66 C535.67,262.47 535.00,260.96 535.00,257.97 C535.00,253.42 537.65,251.00 542.64,251.00 C547.21,251.00 548.88,251.86 550.54,255.07 C552.58,259.02 552.39,260.38 549.28,264.08 C546.73,267.11 546.54,267.99 546.28,278.40 C545.86,294.45 546.06,295.07 553.63,302.28 C557.23,305.70 560.84,308.88 561.66,309.34 C564.61,311.01 564.03,309.15 560.23,304.76 C556.80,300.80 556.33,299.62 556.12,294.48 C555.96,290.52 555.27,287.88 553.94,286.20 C550.11,281.33 552.63,276.00 558.77,276.00 C564.01,276.00 566.81,282.22 563.53,286.56 C562.64,287.74 562.04,290.84 562.01,294.50 L 561.97 300.50 L 575.98 314.02 L 590.00 327.53 L 590.00 357.67 L 604.97 372.50 L 604.98 378.07 C604.89,372.37 604.46,372.07 602.44,371.15 C601.03,370.51 600.13,370.41 600.45,370.92 C600.77,371.44 600.58,372.14 600.02,372.49 C599.41,372.86 599.08,376.57 599.00,380.92 L 599.00 373.45 L 592.00 366.50 L 587.41 361.95 C588.84,363.26 589.25,362.40 589.55,358.53 ZM 711.55 619.43 C713.13,615.89 714.32,612.84 714.32,612.25 C714.33,611.36 716.53,611.00 721.92,610.98 C727.18,610.97 729.04,610.67 728.00,610.00 C726.70,609.16 726.72,609.03 728.14,609.02 C729.06,609.01 729.72,608.26 729.64,607.32 C729.56,606.32 730.51,605.35 732.00,604.92 C734.13,604.30 734.21,604.17 732.50,603.97 C731.27,603.83 731.86,603.45 734.00,603.00 C736.41,602.49 734.18,602.22 726.82,602.13 C715.44,601.99 713.00,601.05 713.00,596.81 C713.00,595.01 712.79,594.92 711.32,596.13 C710.06,597.17 703.40,610.30 699.39,619.14 C700.01,617.70 700.68,616.16 701.39,614.58 C704.35,607.94 708.22,599.12 709.98,595.00 C711.74,590.88 716.12,581.09 719.71,573.25 L 726.24 559.00 L 738.70 559.00 L 746.81 576.75 C765.14,616.83 769.76,627.54 769.04,628.31 C768.62,628.75 765.86,628.98 762.89,628.81 L 757.50 628.50 L 753.50 620.25 L 749.50 612.01 L 732.24 612.00 L 714.98 612.00 ZM 863.64 627.78 C863.21,628.47 860.76,629.00 857.94,629.00 C853.24,629.00 853.00,628.87 852.92,626.25 C852.88,624.74 852.91,609.33 852.99,592.02 C853.10,569.04 853.46,560.33 854.32,559.78 C855.83,558.82 861.20,558.81 862.50,559.77 C864.91,561.53 885.14,586.67 894.30,599.27 C899.04,605.80 900.77,607.56 901.61,606.72 C901.98,606.36 902.19,602.22 902.08,597.52 C901.93,590.60 902.19,588.86 903.45,588.38 C904.30,588.05 905.00,587.13 905.00,586.33 C905.00,585.54 905.45,585.16 906.00,585.50 C906.55,585.84 907.00,585.55 907.00,584.84 C907.00,582.39 910.12,586.61 911.26,590.61 C911.87,592.75 912.53,602.04 912.73,611.25 L 913.09 628.00 L 903.17 628.00 L 885.88 605.75 C876.37,593.51 867.90,582.97 867.05,582.32 C864.50,580.39 863.98,584.77 864.20,606.53 C864.31,617.54 864.05,627.10 863.64,627.78 ZM 576.82 289.88 C577.12,304.10 577.03,305.00 575.27,305.00 C571.55,305.00 571.00,303.06 571.00,289.95 L 571.00 277.30 L 564.95 271.53 L 558.90 265.76 L 558.70 254.74 C558.52,244.92 558.28,243.60 556.52,242.61 C555.44,242.00 552.18,240.04 549.27,238.26 L 544.00 235.02 L 544.00 217.26 L 551.13 213.13 C555.06,210.86 559.37,209.00 560.72,209.00 C562.09,209.00 565.00,210.56 567.27,212.50 C569.52,214.43 571.90,216.00 572.57,216.00 C574.96,216.00 577.11,222.73 576.80,229.25 L 576.50 235.50 L 570.31 239.50 L 564.13 243.50 L 564.06 253.50 L 563.99 263.50 L 570.24 269.13 L 576.50 274.75 ZM 660.67 487.64 C660.67,486.94 657.82,483.47 654.34,479.93 L 649.37 474.88 L 655.41 480.92 C660.88,486.39 663.56,489.39 666.91,491.04 C670.98,493.04 676.05,493.03 688.35,493.01 C689.84,493.00 691.43,493.00 693.14,493.00 C708.52,493.00 717.11,493.37 717.53,494.04 C717.88,494.61 722.71,499.11 728.26,504.04 L 738.36 513.00 L 749.71 513.00 C758.92,513.00 761.17,513.29 761.64,514.51 C761.96,515.34 761.67,516.69 760.99,517.51 C759.95,518.76 755.52,519.00 733.51,519.00 C731.76,519.00 730.13,519.00 728.60,519.00 C713.03,519.02 708.20,519.03 704.54,516.96 C702.53,515.83 700.87,514.08 697.99,511.36 L 694.48 508.06 L 691.50 508.00 L 695.63 508.00 L 698.50 511.00 C700.08,512.65 701.63,514.00 701.95,514.00 C702.26,514.00 702.55,512.42 702.58,510.50 C702.61,509.09 702.47,507.87 702.27,507.32 C703.12,508.02 704.01,508.75 704.84,509.44 C709.04,512.88 709.47,513.00 717.43,513.00 C721.96,513.00 725.98,512.69 726.36,512.31 C726.74,511.92 724.24,508.77 720.81,505.31 L 714.56 499.00 L 691.70 499.00 C673.85,499.00 668.92,499.27 669.25,500.25 C669.54,501.13 673.60,501.65 683.08,502.00 C687.54,502.17 690.70,502.34 692.97,502.59 C690.69,502.39 687.38,502.29 682.29,502.18 C668.97,501.87 667.91,501.71 666.26,499.64 C664.38,497.28 660.04,494.00 658.80,494.00 C657.94,494.00 658.64,496.09 660.15,498.70 C657.33,495.08 653.12,490.12 649.70,486.44 L 641.90 478.04 L 641.90 477.35 L 648.57 484.07 C654.73,490.27 655.47,490.73 657.96,489.86 C659.45,489.35 660.67,488.35 660.67,487.64 ZM 792.67 593.25 C792.92,593.66 798.09,594.00 804.16,594.00 C820.22,594.00 825.00,591.02 825.00,580.98 C825.00,571.95 821.26,570.00 803.98,570.00 L 791.89 570.00 L 792.06 581.25 C792.15,587.44 792.43,592.84 792.67,593.25 ZM 576.55 368.09 C576.24,367.58 576.55,366.91 577.24,366.59 C578.25,366.12 578.25,365.88 577.25,365.42 C576.56,365.10 576.00,363.49 576.00,361.85 C576.00,359.19 574.13,356.00 572.57,356.00 C572.33,356.00 572.13,357.27 572.04,359.06 L 572.02 353.00 C571.96,338.60 571.40,336.85 567.64,339.31 C565.19,340.92 565.11,341.34 564.81,353.74 L 564.67 359.43 C564.37,358.53 563.89,357.79 563.27,357.55 C562.29,357.17 561.37,357.39 561.15,358.06 C560.87,358.88 560.51,358.83 559.89,357.86 C559.26,356.86 559.03,357.10 559.02,358.75 C559.01,359.99 558.51,361.00 557.90,361.00 C557.82,361.00 557.69,360.95 557.52,360.86 L 557.79 351.56 C558.07,342.03 557.97,341.53 555.54,339.27 C549.82,333.97 553.70,325.00 561.71,325.00 C564.52,325.00 566.22,326.03 571.07,330.65 L 577.00 336.30 L 577.00 363.32 L 585.00 371.00 C591.50,377.25 593.00,379.24 593.00,381.68 C593.00,383.32 592.74,384.93 592.41,385.25 C592.38,385.29 592.28,385.26 592.13,385.18 C592.42,384.73 592.46,383.70 592.23,382.10 C591.65,378.19 588.98,375.66 587.32,377.47 C586.46,378.42 586.68,379.46 588.34,381.98 C586.55,380.31 584.32,378.11 581.95,375.67 L 572.07 365.50 L 572.06 363.02 C572.23,365.43 572.79,366.44 574.22,367.44 C576.77,369.22 577.36,369.39 576.55,368.09 ZM 615.82 333.65 C615.50,347.01 614.78,349.72 611.99,347.99 C610.83,347.28 610.42,344.32 610.15,334.79 L 609.80 322.50 L 602.40 314.86 L 595.00 307.23 L 595.00 285.62 L 600.21 280.81 C604.72,276.64 605.54,276.22 606.35,277.67 C607.09,278.98 606.50,279.98 603.65,282.27 L 600.00 285.19 L 600.00 305.22 L 608.07 312.81 L 616.15 320.40 ZM 723.25 601.36 C725.72,601.90 743.18,601.15 743.86,600.47 C744.49,599.85 733.41,574.92 732.41,574.69 C731.42,574.47 721.11,596.68 721.04,599.18 C721.02,600.13 721.98,601.08 723.25,601.36 ZM 530.08 320.68 C528.53,319.13 528.74,317.28 530.75,315.07 C534.38,311.07 535.07,310.21 533.89,310.04 C538.44,309.73 543.00,312.95 543.00,318.00 C543.00,321.21 539.02,326.00 536.35,326.00 C535.35,326.00 535.00,327.75 535.00,332.81 L 535.00 339.62 L 546.25 350.56 L 554.46 358.54 C553.18,357.46 551.68,356.12 550.15,354.66 C544.34,349.12 538.82,345.28 540.45,347.93 C540.76,348.42 540.54,348.99 539.96,349.18 C539.38,349.37 540.50,351.40 542.45,353.67 C544.40,355.95 546.00,358.08 546.00,358.41 C546.00,358.73 542.27,359.00 537.72,359.00 L 529.43 359.00 L 528.44 358.00 L 545.45 358.00 L 537.73 350.23 L 530.00 342.46 L 530.00 334.56 C530.00,328.75 529.58,326.19 528.42,324.91 C527.68,324.10 526.89,322.14 526.48,320.23 C526.90,321.44 527.54,322.69 528.25,323.60 L 530.50 326.47 L 530.83 324.12 C531.02,322.83 530.68,321.28 530.08,320.68 ZM 662.12 569.86 C664.53,569.69 666.00,569.38 666.00,569.00 C666.00,568.45 665.21,567.99 664.25,567.97 C662.22,567.93 657.66,564.17 656.74,561.77 C656.33,560.70 656.71,559.97 657.81,559.68 C658.74,559.43 654.44,559.18 648.25,559.12 L 637.00 559.00 L 688.10 559.00 L 687.50 569.50 L 668.25 569.77 ZM 605.51 252.98 C604.47,254.67 603.53,254.20 598.55,249.50 C595.73,246.83 592.85,245.00 591.47,245.00 C587.70,245.00 583.00,240.36 583.02,236.66 C583.03,232.94 583.73,231.71 586.68,230.15 C589.78,228.52 594.16,228.73 596.88,230.63 C598.97,232.09 599.13,232.77 598.55,237.43 C597.93,242.45 598.03,242.76 602.02,247.29 C604.29,249.86 605.86,252.42 605.51,252.98 ZM 633.17 392.35 C629.34,395.81 629.00,394.63 629.00,377.93 L 629.00 363.19 L 636.12 356.59 C640.04,352.97 643.65,350.00 644.15,350.00 C644.65,350.00 645.34,350.71 645.67,351.58 C646.08,352.64 644.42,355.04 640.64,358.86 L 635.00 364.56 L 635.00 377.62 C635.00,389.01 634.77,390.90 633.17,392.35 ZM 619.18 307.58 C618.54,312.08 617.22,313.88 615.69,312.35 C615.31,311.98 615.00,309.46 615.00,306.76 C615.00,302.18 615.36,301.47 620.50,296.09 C625.80,290.53 626.00,290.12 626.00,284.83 C626.00,280.28 625.58,278.95 623.50,277.00 C622.12,275.71 621.01,273.72 621.02,272.58 C621.03,270.87 621.20,270.77 622.00,272.00 C622.84,273.30 622.97,273.31 622.98,272.03 C622.99,271.04 623.52,271.29 624.56,272.78 C625.41,274.00 626.75,275.00 627.52,275.00 C629.69,275.00 630.70,277.91 630.91,284.77 L 631.11 291.04 L 625.48 296.93 C620.78,301.86 619.75,303.61 619.18,307.58 ZM 501.10 322.52 L 500.91 322.34 C496.49,318.03 492.34,314.33 491.68,314.12 C488.00,312.94 487.00,310.67 487.00,303.48 C487.00,296.63 486.89,296.28 484.75,296.42 C483.27,296.51 480.78,294.86 477.50,291.61 C474.75,288.89 472.65,286.45 472.84,286.19 C473.02,285.93 472.58,285.36 471.87,284.92 C471.03,284.40 467.54,285.74 463.94,287.65 C465.75,286.49 467.41,285.41 468.34,284.76 L 471.19 282.80 L 487.50 292.78 L 487.79 301.24 L 488.07 309.69 L 498.52 319.97 C499.46,320.90 500.32,321.74 501.10,322.52 ZM 641.96 298.81 C639.21,301.76 638.94,301.60 639.48,297.38 C639.73,295.39 640.00,290.78 640.07,287.13 C640.24,278.44 640.83,276.00 642.59,276.67 C643.67,277.09 644.00,279.50 644.00,286.92 C644.00,295.30 643.72,296.92 641.96,298.81 ZM 662.93 519.05 L 657.63 514.04 C661.58,517.77 663.65,519.00 665.94,519.00 C668.67,519.00 669.00,518.68 669.00,516.00 C669.00,513.73 668.54,513.00 667.12,513.00 C666.09,513.00 664.63,512.25 663.87,511.34 C665.02,512.73 667.32,513.00 677.99,513.00 C680.39,513.00 682.36,513.01 684.00,513.04 C682.20,513.17 682.06,513.60 682.50,515.00 C683.00,516.56 682.68,517.00 681.07,517.00 C679.93,517.00 679.00,517.45 679.00,518.00 C679.00,518.41 679.99,518.77 681.39,518.92 C680.59,518.93 679.78,518.94 678.95,518.95 ZM 531.75 320.92 C534.40,322.47 535.74,322.21 537.40,319.85 C539.32,317.10 537.87,314.00 534.66,314.00 C530.32,314.00 528.26,318.89 531.75,320.92 ZM 588.57 239.43 C591.60,242.46 595.45,240.23 594.83,235.81 C594.45,233.16 590.75,232.14 588.44,234.05 C586.57,235.60 586.61,237.47 588.57,239.43 ZM 540.57 261.43 C543.60,264.46 547.45,262.23 546.83,257.81 C546.45,255.16 542.75,254.14 540.44,256.05 C538.57,257.60 538.61,259.47 540.57,261.43 ZM 538.55 197.94 C536.17,200.57 534.50,200.55 532.60,197.85 C530.50,194.84 532.20,191.77 535.72,192.19 C539.53,192.65 540.88,195.37 538.55,197.94 ZM 714.75 407.92 C717.12,409.30 717.61,409.25 719.43,407.43 C722.60,404.25 720.02,400.28 715.51,401.41 C712.50,402.16 712.01,406.32 714.75,407.92 ZM 664.04 335.55 C665.81,337.68 669.75,337.34 671.03,334.94 C672.60,332.01 670.54,329.81 666.59,330.20 C663.21,330.53 661.99,333.08 664.04,335.55 ZM 558.57 335.67 C560.82,337.32 562.25,337.35 563.80,335.80 C566.64,332.96 563.38,328.15 559.61,329.60 C557.11,330.56 556.49,334.16 558.57,335.67 ZM 475.46 264.14 C474.75,266.37 470.20,266.69 469.38,264.56 C468.32,261.77 469.48,259.50 472.13,259.20 C475.02,258.86 476.45,261.00 475.46,264.14 ZM 688.25 408.36 C688.94,408.64 690.40,408.79 691.50,408.69 C694.21,408.43 694.39,402.70 691.70,402.18 C688.14,401.49 685.05,407.02 688.25,408.36 ZM 786.96 391.55 C784.61,394.39 780.64,392.57 781.16,388.89 C781.43,386.98 782.10,386.50 784.49,386.50 C787.80,386.50 789.05,389.03 786.96,391.55 ZM 626.05 333.56 C627.60,335.43 629.92,335.09 631.38,332.77 C632.21,331.44 632.08,330.66 630.81,329.38 C627.81,326.39 623.35,330.30 626.05,333.56 ZM 602.08 402.19 C600.38,401.35 592.99,394.74 584.61,386.53 C568.47,370.72 567.76,370.17 564.47,370.70 L 561.07 371.25 L 562.04 367.88 C562.57,366.02 563.45,364.35 564.00,364.17 C564.23,364.09 564.42,363.93 564.57,363.71 L 564.50 366.50 L 582.91 384.71 C592.25,393.95 600.32,401.29 602.08,402.19 ZM 667.40 315.08 C666.46,315.86 664.68,316.52 663.45,316.54 L 661.21 316.59 L 663.66 313.38 C666.21,310.04 669.00,308.32 669.00,310.09 C669.00,310.66 669.49,310.81 670.10,310.44 C671.77,309.40 669.47,313.36 667.40,315.08 ZM 654.15 293.99 C654.41,298.32 654.13,298.95 652.25,298.28 C651.40,297.98 651.01,295.53 651.04,290.67 C651.08,283.59 651.10,283.54 652.50,286.77 C653.28,288.57 654.03,291.82 654.15,293.99 ZM 687.55 517.25 C687.97,516.29 688.24,515.14 688.14,514.71 C688.05,514.27 688.99,514.46 690.24,515.12 C692.29,516.22 692.37,516.17 691.13,514.66 C690.60,514.02 689.64,513.54 688.40,513.26 C691.00,513.53 692.08,514.06 693.37,515.08 C694.83,516.22 695.78,517.54 695.50,518.00 C695.28,518.35 690.97,518.68 685.07,518.85 C686.41,518.61 687.18,518.10 687.55,517.25 ZM 565.00 345.86 C565.00,343.66 562.47,341.09 560.25,341.03 C559.56,341.01 559.00,342.15 559.00,343.56 C559.00,345.01 559.43,345.85 560.00,345.50 C560.55,345.16 561.01,345.47 561.02,346.19 C561.03,347.14 561.30,347.09 562.00,346.00 C562.83,344.72 562.97,344.75 562.98,346.25 C562.99,347.21 563.45,348.00 564.00,348.00 C564.55,348.00 565.00,347.04 565.00,345.86 ZM 557.15 285.11 C559.03,286.30 559.58,286.22 560.99,284.51 C562.77,282.37 561.45,279.80 558.76,280.18 C556.20,280.55 555.13,283.83 557.15,285.11 ZM 598.66 351.55 C599.65,354.15 603.50,352.91 603.50,350.00 C603.50,348.21 602.89,347.41 601.38,347.20 C599.06,346.87 597.70,349.05 598.66,351.55 ZM 722.55 331.34 C723.44,334.89 722.71,338.76 721.25,338.26 C719.78,337.76 719.54,330.40 720.97,329.52 C721.50,329.19 722.21,330.01 722.55,331.34 ZM 487.81 276.74 C487.32,279.27 484.32,279.46 483.02,277.05 C482.14,275.39 482.23,274.85 483.46,274.38 C485.80,273.48 488.19,274.78 487.81,276.74 ZM 655.09 321.39 C653.59,323.20 652.39,323.44 651.55,322.08 C650.54,320.45 654.05,318.00 657.32,318.06 C659.99,318.12 660.18,318.26 658.47,318.95 C657.35,319.41 655.83,320.50 655.09,321.39 ZM 758.96 418.54 C757.40,420.43 756.36,420.39 755.60,418.41 C754.85,416.45 755.66,415.00 757.50,415.00 C759.56,415.00 760.34,416.89 758.96,418.54 ZM 689.59 318.44 C690.85,322.46 689.99,324.89 688.11,322.63 C687.31,321.67 687.17,320.12 687.70,318.07 L 688.50 314.98 ZM 607.00 212.32 C607.00,213.78 603.94,213.59 602.55,212.06 C601.05,210.39 601.04,210.20 602.53,209.63 C603.92,209.09 607.00,210.95 607.00,212.32 ZM 611.00 257.52 C611.00,259.37 608.26,260.12 607.61,258.44 C607.31,257.65 607.33,256.31 607.65,255.47 C608.10,254.30 608.55,254.21 609.62,255.10 C610.38,255.73 611.00,256.82 611.00,257.52 ZM 697.00 325.67 C697.00,326.40 696.37,327.00 695.61,327.00 C693.72,327.00 692.79,324.29 694.47,323.65 C696.04,323.05 697.00,323.81 697.00,325.67 ZM 648.01 458.94 L 648.32 473.81 L 648.02 473.50 L 648.01 459.75 ZM 508.17 303.85 C505.98,304.36 503.73,303.91 501.13,302.57 C499.84,301.90 498.85,301.27 498.09,300.55 C498.68,301.02 499.42,301.51 500.36,302.08 C502.80,303.57 505.78,304.17 508.17,303.85 ZM 526.12 316.72 C526.18,315.09 526.79,314.12 528.33,312.58 C528.50,312.41 528.67,312.25 528.84,312.10 C527.53,313.39 526.47,315.10 526.12,316.72 ZM 696.68 503.26 C697.49,503.51 698.06,503.82 698.50,504.19 C699.15,504.74 700.41,505.78 701.82,506.95 C701.30,506.73 700.12,505.82 698.97,504.75 C698.25,504.08 697.63,503.61 696.68,503.26 ZM 586.93 361.47 L 585.00 359.55 L 585.00 357.99 C585.16,358.99 585.70,360.12 586.66,361.18 C586.75,361.28 586.84,361.38 586.93,361.47 ZM 607.50 438.93 L 602.18 444.32 L 607.32 439.11 L 607.58 433.26 ZM 454.13 300.73 C454.14,301.60 454.17,302.60 454.21,303.74 L 454.50 312.50 L 454.20 305.01 C454.14,303.56 454.12,302.09 454.13,300.73 ZM 599.00 385.31 C599.07,388.78 599.29,392.11 599.64,394.08 C599.22,392.24 599.04,389.41 599.00,385.31 ZM 635.53 451.03 C637.61,453.04 638.68,454.72 638.86,456.24 C638.62,454.79 637.49,453.04 635.50,451.00 L 635.53 451.03 ZM 600.25 395.85 C600.90,396.49 601.68,397.00 602.00,397.00 C601.26,397.00 600.69,396.65 600.25,395.85 ZM 502.04 296.81 C502.30,297.09 502.55,297.34 502.81,297.56 C501.92,296.95 501.21,296.16 500.78,295.29 C501.09,295.75 501.51,296.24 502.04,296.81 ZM 642.06 458.75 C642.07,455.66 642.07,453.38 642.06,452.84 C642.03,452.08 640.89,450.09 639.38,448.10 C640.86,449.91 642.03,451.93 642.06,452.78 C642.08,453.34 642.07,455.65 642.06,458.75 ZM 666.73 507.50 L 666.52 507.50 L 665.13 505.55 ZM 696.00 627.83 C696.00,627.67 696.16,627.16 696.44,626.38 C696.43,626.41 696.42,626.45 696.41,626.48 C696.21,627.30 696.09,627.84 696.21,628.22 C696.07,628.10 696.00,627.97 696.00,627.83 ZM 619.28 426.46 C619.62,427.71 620.35,428.91 621.47,429.97 C620.22,428.80 619.56,427.82 619.28,426.46 ZM 605.82 399.94 C604.87,400.71 603.74,401.48 602.44,402.25 C603.01,401.91 604.45,400.92 605.82,399.94 ZM 652.06 570.00 L 649.00 570.04 L 649.00 570.00 ZM 522.42 351.91 C519.98,349.48 518.82,348.56 516.95,348.21 C518.87,348.56 520.00,349.48 522.42,351.91 ZM 638.80 462.52 C638.79,464.70 638.81,467.27 638.85,469.81 L 639.00 480.13 L 638.84 469.81 C638.81,467.26 638.79,464.69 638.80,462.52 ZM 628.19 434.04 C628.05,435.56 628.00,437.74 628.00,440.83 C628.00,437.66 628.03,435.57 628.19,434.04 ZM 632.04 444.14 C632.11,445.63 632.27,446.64 632.67,447.53 C632.25,446.65 632.08,445.66 632.04,444.14 ZM 454.44 295.37 C454.48,295.24 454.54,295.09 454.62,294.94 C454.52,295.18 454.44,295.44 454.37,295.74 C454.39,295.60 454.42,295.47 454.44,295.37 Z" fill="rgb(193,154,58)"/>
<path d="M 656.00 322.00 C653.04,324.31 652.76,324.36 651.21,322.81 C649.64,321.24 653.45,317.00 656.44,317.00 C657.77,317.00 662.60,312.92 669.77,305.73 L 681.00 294.47 L 681.00 280.26 C681.00,266.20 680.97,266.03 678.50,264.41 C675.17,262.23 674.93,255.28 678.08,252.43 C680.83,249.93 687.17,249.93 689.92,252.43 C692.96,255.18 692.73,261.11 689.45,264.65 C686.82,267.49 686.31,272.96 688.60,273.71 C689.21,273.91 692.02,271.99 694.85,269.44 L 700.00 264.81 L 700.00 255.98 C700.00,249.55 700.40,246.74 701.47,245.68 C703.55,243.60 715.54,237.00 717.25,237.00 C720.20,237.00 733.83,245.24 734.40,247.37 C734.72,248.54 734.98,252.77 734.99,256.76 C734.99,257.09 734.99,257.39 734.99,257.69 C735.00,260.43 735.01,262.08 734.36,263.42 C733.31,265.59 730.54,266.93 723.27,270.75 L 718.03 273.50 L 713.27 271.67 C713.00,271.56 712.74,271.47 712.49,271.37 C709.02,270.03 707.08,269.29 705.29,269.55 C702.90,269.90 700.76,272.06 695.58,277.04 C689.55,282.82 687.00,285.98 687.00,287.64 C687.00,289.98 687.11,290.00 697.98,290.00 C708.73,290.00 708.99,289.95 710.68,287.36 C715.44,280.10 727.65,280.55 731.57,288.14 C734.81,294.41 731.24,300.73 723.21,302.95 C719.10,304.09 714.74,302.48 710.95,298.44 C708.80,296.15 707.99,296.00 698.18,296.00 L 687.70 296.00 L 675.71 308.00 C666.57,317.15 663.11,320.01 661.11,320.02 C659.68,320.03 657.38,320.92 656.00,322.00 ZM 616.44 312.85 C614.48,313.03 614.00,311.68 614.00,306.76 C614.00,302.18 614.36,301.47 619.50,296.09 C624.80,290.53 625.00,290.12 625.00,284.83 C625.00,280.28 624.58,278.95 622.50,277.00 C619.48,274.16 619.31,270.57 622.00,266.50 C623.09,264.85 623.99,262.80 623.99,261.95 C624.00,261.09 620.62,257.09 616.50,253.07 L 609.00 245.74 L 608.93 222.50 L 595.50 213.50 L 595.21 204.41 L 594.93 195.33 L 602.83 190.66 C607.17,188.10 611.20,186.00 611.79,186.00 C613.02,186.00 624.64,192.65 627.25,194.84 C628.67,196.03 629.00,197.96 629.00,205.11 L 629.00 213.91 L 615.00 222.09 L 615.00 244.22 L 622.00 250.78 C627.17,255.62 629.00,258.01 629.00,259.92 C629.00,261.67 630.12,263.40 632.50,265.29 C636.64,268.60 637.22,273.18 634.00,277.27 C632.57,279.09 632.00,281.34 631.99,285.16 C631.99,291.32 630.54,293.97 624.09,299.70 C621.06,302.39 619.93,303.90 619.36,306.48 C619.98,303.24 621.24,301.38 625.48,296.93 L 631.11 291.04 L 630.91 284.77 C630.70,277.91 629.69,275.00 627.52,275.00 C626.75,275.00 625.41,274.00 624.56,272.78 C623.52,271.29 622.99,271.04 622.98,272.03 C622.97,273.31 622.84,273.30 622.00,272.00 C621.20,270.77 621.03,270.87 621.02,272.58 C621.01,273.72 622.12,275.71 623.50,277.00 C625.58,278.95 626.00,280.28 626.00,284.83 C626.00,290.12 625.80,290.53 620.50,296.09 C615.36,301.47 615.00,302.18 615.00,306.76 C615.00,309.46 615.31,311.98 615.69,312.35 C615.95,312.61 616.20,312.78 616.44,312.85 ZM 650.66 302.88 C647.72,305.15 644.79,307.00 644.16,307.00 C641.86,307.00 643.07,303.77 646.50,300.73 L 650.00 297.63 L 650.00 275.83 L 663.00 263.72 L 663.00 243.50 L 658.37 241.04 C649.11,236.13 649.00,235.95 649.00,225.98 L 649.00 217.10 L 655.25 213.47 C658.69,211.47 662.67,209.13 664.09,208.25 C666.61,206.71 666.94,206.82 674.59,211.55 C678.94,214.23 682.85,216.89 683.27,217.46 C683.84,218.22 683.66,233.06 683.07,234.69 C683.03,234.79 679.85,236.81 676.01,239.19 L 669.02 243.50 L 669.01 254.53 L 669.00 265.56 L 656.00 278.44 L 656.00 298.76 ZM 724.05 337.50 C723.61,340.68 723.04,341.57 721.25,341.82 C719.12,342.12 719.00,341.80 719.00,335.84 L 719.00 329.53 L 729.00 319.86 L 739.00 310.18 L 739.00 302.24 C739.00,301.90 739.00,301.57 739.00,301.25 C738.99,297.96 738.99,296.09 739.71,294.56 C740.74,292.39 743.24,290.91 749.28,287.05 L 756.07 282.72 L 761.28 285.54 C764.15,287.09 767.85,289.10 769.50,290.01 C772.88,291.88 773.85,295.29 773.94,305.63 C773.94,305.82 773.95,306.00 773.95,306.17 C773.97,308.70 773.99,310.20 773.40,311.41 C772.49,313.27 770.14,314.42 764.15,317.53 L 756.80 321.35 L 750.55 318.18 C747.11,316.43 743.98,315.00 743.59,315.00 C742.69,315.00 726.83,329.92 725.55,331.98 C725.02,332.81 724.35,335.30 724.05,337.50 ZM 884.57 604.06 C885.00,604.62 885.44,605.18 885.88,605.75 L 903.17 628.00 L 913.09 628.00 L 912.73 611.25 C912.53,602.04 911.87,592.75 911.26,590.61 C910.12,586.61 907.00,582.39 907.00,584.84 C907.00,585.55 906.55,585.84 906.00,585.50 C905.45,585.16 905.00,585.54 905.00,586.33 C905.00,587.13 904.30,588.05 903.45,588.38 C902.19,588.86 901.93,590.60 902.08,597.52 C902.19,602.22 901.98,606.36 901.61,606.72 C900.77,607.56 899.04,605.80 894.30,599.27 C885.14,586.67 864.91,561.53 862.50,559.77 C861.20,558.81 855.83,558.82 854.32,559.78 C853.46,560.33 853.10,569.04 852.99,592.02 C852.91,609.33 852.88,624.74 852.92,626.25 C852.93,626.56 852.94,626.83 852.96,627.07 C852.88,626.70 852.81,626.27 852.73,625.75 C852.45,623.96 852.29,608.10 852.36,590.50 L 852.50 558.50 L 858.05 558.21 L 863.60 557.91 L 871.05 567.58 C875.15,572.90 879.85,578.94 881.50,581.01 C883.15,583.07 888.10,589.41 892.50,595.10 L 900.50 605.43 L 900.77 582.51 C900.97,565.71 901.37,559.39 902.27,558.81 C903.88,557.79 911.14,557.80 912.76,558.83 C913.75,559.46 913.97,567.19 913.76,594.07 L 913.50 628.50 L 908.64 628.81 C903.93,629.11 900.00,627.28 900.00,624.78 C900.00,624.23 892.45,614.23 884.57,604.06 ZM 634.87 328.26 C634.40,327.56 633.78,326.87 633.00,326.19 C630.26,323.79 630.00,323.00 630.00,317.25 C630.00,311.33 630.23,310.71 633.89,306.73 C636.96,303.39 637.51,302.25 636.52,301.34 C635.55,300.43 634.12,301.18 630.13,304.66 L 625.00 309.16 L 625.00 316.92 C625.00,321.16 624.86,323.30 624.30,324.69 C624.86,323.28 624.99,321.07 624.97,316.60 L 624.95 308.50 L 638.89 295.50 L 639.14 281.00 C639.31,271.07 638.97,265.19 638.07,262.34 C636.35,256.96 637.30,253.42 640.96,251.52 C645.11,249.37 647.39,249.62 650.92,252.59 C656.25,257.07 654.33,264.31 647.25,266.45 C645.05,267.12 645.00,267.44 645.00,282.34 L 645.00 297.55 L 631.00 311.45 L 631.00 317.86 C631.00,323.41 631.33,324.58 633.50,326.59 C634.00,327.05 634.47,327.64 634.87,328.26 ZM 686.48 357.64 L 682.52 357.50 L 689.66 349.99 C696.30,343.01 697.43,341.25 697.12,338.42 C696.95,336.90 694.00,337.06 694.00,338.58 C694.00,340.20 671.83,361.01 670.79,360.37 C671.63,360.22 676.56,355.87 682.18,350.27 L 693.00 339.50 L 693.00 333.28 C693.00,327.38 692.84,326.97 690.03,325.52 C686.52,323.70 684.99,321.19 685.03,317.32 C685.12,309.45 695.94,306.29 700.96,312.67 C703.51,315.92 703.57,320.00 701.12,323.12 C699.72,324.90 699.14,327.61 698.86,333.67 L 698.49 341.83 L 691.75 348.82 C688.04,352.66 685.00,356.30 685.00,356.90 C685.00,357.21 685.51,357.46 686.48,357.64 ZM 629.37 355.11 L 644.00 340.54 L 644.00 321.07 L 647.55 317.52 C649.50,315.57 650.83,313.53 650.50,313.00 C650.17,312.46 650.52,312.26 651.29,312.56 C652.97,313.20 660.35,305.38 659.45,303.92 C659.11,303.36 659.37,302.26 660.04,301.46 C661.43,299.78 663.45,299.46 662.45,301.07 C662.09,301.66 662.74,301.55 663.91,300.83 C666.21,299.39 667.48,296.59 666.53,295.05 C666.20,294.51 660.21,299.91 653.21,307.05 L 640.50 320.03 L 639.99 329.60 C639.62,336.71 639.46,338.60 637.98,340.36 C638.99,338.83 639.00,336.64 639.00,329.64 L 639.00 319.47 L 649.96 308.54 L 660.93 297.61 L 660.79 292.27 C660.62,286.00 661.94,284.21 667.36,283.33 C672.14,282.55 676.00,285.75 676.00,290.49 C676.00,293.91 672.90,298.00 670.30,298.00 C669.41,298.00 663.36,303.26 656.84,309.70 L 645.00 321.39 L 645.00 340.65 L 635.00 349.90 ZM 717.99 352.99 C722.55,352.78 727.70,349.99 732.30,345.25 C735.64,341.79 735.91,341.17 734.54,340.03 C733.22,338.93 732.24,339.44 728.03,343.37 C723.25,347.85 722.88,348.00 716.87,348.00 C710.84,348.00 710.48,348.15 704.86,353.04 L 702.07 355.47 L 705.00 352.50 L 710.43 347.00 L 716.79 347.00 C723.13,347.00 723.16,346.99 728.91,341.50 C733.56,337.07 735.33,336.00 738.04,336.00 C740.45,336.00 742.32,335.12 744.60,332.90 C748.88,328.76 754.38,328.57 757.72,332.46 C760.43,335.61 760.59,338.18 758.33,342.02 C755.51,346.79 748.83,347.41 744.02,343.36 C740.29,340.22 738.91,340.63 731.78,346.94 C727.08,351.10 723.19,352.82 717.99,352.99 ZM 605.51 252.98 C605.86,252.42 604.29,249.86 602.02,247.29 C598.03,242.76 597.93,242.45 598.55,237.43 C598.74,235.96 598.84,234.89 598.84,234.06 C598.96,234.89 599.00,235.91 599.00,237.23 C599.00,242.16 599.23,242.57 605.50,249.07 L 612.00 255.81 L 612.00 275.44 L 600.62 286.94 L 600.19 295.97 L 600.00 299.88 L 600.00 285.19 L 603.65 282.27 C606.50,279.98 607.09,278.98 606.35,277.67 C605.54,276.22 604.72,276.64 600.21,280.81 L 595.00 285.62 L 595.00 284.44 L 607.00 272.56 L 607.00 258.34 L 599.58 251.67 C595.50,248.00 591.48,245.00 590.66,245.00 C590.33,245.00 589.81,244.82 589.19,244.51 C589.96,244.82 590.73,245.00 591.47,245.00 C592.85,245.00 595.73,246.83 598.55,249.50 C603.53,254.20 604.47,254.67 605.51,252.98 ZM 779.66 372.78 C779.86,372.63 780.05,372.45 780.26,372.26 C781.32,371.31 784.28,369.38 786.84,367.98 C789.78,366.37 791.45,364.80 791.36,363.72 C791.28,362.77 791.62,362.00 792.11,362.00 C793.57,362.00 793.12,354.13 791.47,350.95 C790.51,349.08 789.17,348.00 787.81,348.00 C786.63,348.00 785.94,347.73 786.27,347.39 C787.09,346.57 784.21,343.72 780.27,341.45 C777.07,339.61 777.01,339.61 775.05,341.72 C773.96,342.89 772.04,344.15 770.78,344.53 C767.46,345.53 761.00,352.07 760.99,354.45 C760.98,355.58 760.70,357.51 760.37,358.75 C760.27,359.13 760.18,359.45 760.00,359.72 L 760.00 353.47 C760.00,347.32 760.31,345.82 761.69,345.29 C762.62,344.93 766.24,342.72 769.74,340.37 C772.86,338.28 774.49,337.09 776.21,336.94 C778.28,336.76 780.49,338.09 785.62,341.19 C786.00,341.41 786.38,341.64 786.78,341.88 L 794.07 346.27 L 793.78 355.78 L 793.50 365.30 L 785.63 369.65 C783.41,370.88 781.28,371.99 779.66,372.78 ZM 588.00 309.59 L 587.00 308.68 L 587.00 287.75 C587.00,268.33 587.14,266.63 589.00,264.27 C591.32,261.33 591.64,255.77 589.59,254.07 C587.84,252.62 586.91,253.95 587.51,257.05 C587.57,257.37 587.58,257.72 587.54,258.09 C587.34,257.67 587.02,257.15 586.57,256.46 C584.62,253.48 582.36,253.56 580.30,256.68 C579.62,257.70 579.31,258.30 579.44,258.91 C579.17,258.43 579.00,258.00 579.00,257.69 C579.00,256.97 579.92,255.39 581.05,254.18 C582.93,252.16 582.96,251.92 581.39,251.32 C579.11,250.45 575.24,255.00 575.01,258.68 C575.05,256.92 575.91,255.07 577.59,253.08 C584.83,244.48 596.96,255.42 590.00,264.27 C588.14,266.64 588.00,268.33 588.00,288.22 ZM 716.41 295.50 C718.34,298.44 722.42,298.83 725.17,296.35 C727.76,294.00 727.47,290.36 724.55,288.44 C721.56,286.48 718.53,287.27 716.36,290.58 C714.90,292.80 714.91,293.21 716.41,295.50 ZM 641.96 298.81 C643.72,296.92 644.00,295.30 644.00,286.92 C644.00,279.50 643.67,277.09 642.59,276.67 C640.83,276.00 640.24,278.44 640.07,287.13 C640.00,290.78 639.73,295.39 639.48,297.38 C638.94,301.60 639.21,301.76 641.96,298.81 ZM 706.17 218.75 C702.82,221.45 698.00,219.02 698.00,214.63 C698.00,211.64 699.82,210.00 703.14,210.00 C708.15,210.00 710.08,215.60 706.17,218.75 ZM 637.80 186.80 C637.14,187.46 635.66,188.00 634.50,188.00 C631.82,188.00 630.00,186.18 630.00,183.50 C630.00,180.82 631.82,179.00 634.50,179.00 C638.49,179.00 640.60,183.99 637.80,186.80 ZM 784.80 324.80 C783.14,326.46 779.50,326.30 778.01,324.51 C776.32,322.47 777.55,318.28 780.07,317.48 C784.05,316.21 787.71,321.89 784.80,324.80 ZM 575.29 215.87 C576.80,217.15 577.03,218.74 576.79,226.44 C576.48,220.93 574.61,216.00 572.57,216.00 C571.90,216.00 569.52,214.43 567.27,212.50 C565.00,210.56 562.09,209.00 560.72,209.00 C559.37,209.00 555.06,210.86 551.13,213.13 L 544.00 217.26 L 544.00 216.31 L 551.62 211.65 C555.81,209.09 559.60,207.00 560.05,207.00 C561.09,207.00 572.95,213.90 575.29,215.87 ZM 642.67 261.33 C644.59,263.26 649.40,260.31 648.86,257.54 C648.31,254.74 645.49,253.35 643.58,254.93 C641.99,256.26 641.43,260.10 642.67,261.33 ZM 690.93 319.42 C692.76,321.62 695.72,321.39 697.03,318.94 C699.26,314.77 693.19,312.13 690.66,316.17 C689.91,317.37 689.98,318.27 690.93,319.42 ZM 748.38 339.56 C749.14,341.54 753.91,341.39 754.69,339.36 C755.60,336.99 753.66,334.50 750.90,334.50 C748.46,334.50 747.32,336.78 748.38,339.56 ZM 681.38 260.56 C682.12,262.48 685.43,262.39 687.07,260.42 C688.85,258.28 687.06,255.50 683.90,255.50 C681.46,255.50 680.32,257.78 681.38,260.56 ZM 667.40 315.08 C669.47,313.36 671.77,309.40 670.10,310.44 C669.49,310.81 669.00,310.66 669.00,310.09 C669.00,308.32 666.21,310.04 663.66,313.38 L 661.21 316.59 L 663.45 316.54 C664.68,316.52 666.46,315.86 667.40,315.08 ZM 654.15 293.99 C654.03,291.82 653.28,288.57 652.50,286.77 C651.10,283.54 651.08,283.59 651.04,290.67 C651.01,295.53 651.40,297.98 652.25,298.28 C654.13,298.95 654.41,298.32 654.15,293.99 ZM 666.11 292.63 C667.57,294.39 668.50,294.36 670.39,292.47 C672.40,290.45 671.37,288.00 668.50,288.00 C665.83,288.00 664.46,290.65 666.11,292.63 ZM 626.45 273.57 C628.17,274.84 628.60,274.83 629.94,273.49 C631.10,272.33 631.21,271.55 630.37,270.23 C628.96,267.99 627.01,268.03 625.61,270.31 C624.72,271.76 624.89,272.41 626.45,273.57 ZM 807.42 350.39 L 807.23 350.47 C806.33,350.81 805.87,350.99 805.48,350.89 C805.04,350.78 804.69,350.33 803.91,349.39 C802.78,348.03 802.86,347.58 804.46,346.41 C805.85,345.39 806.68,345.32 807.67,346.14 C809.47,347.63 809.35,349.65 807.42,350.39 ZM 722.55 331.34 C722.21,330.01 721.50,329.19 720.97,329.52 C719.54,330.40 719.78,337.76 721.25,338.26 C722.71,338.76 723.44,334.89 722.55,331.34 ZM 615.83 287.63 C615.37,290.02 612.18,290.64 611.36,288.50 C610.51,286.28 613.56,283.16 615.09,284.69 C615.69,285.29 616.03,286.62 615.83,287.63 ZM 655.09 321.39 C655.83,320.50 657.35,319.41 658.47,318.95 C660.18,318.26 659.99,318.12 657.32,318.06 C654.05,318.00 650.54,320.45 651.55,322.08 C652.39,323.44 653.59,323.20 655.09,321.39 ZM 629.50 245.49 C629.50,247.47 627.03,248.69 625.70,247.37 C625.32,246.98 625.00,245.81 625.00,244.76 C625.00,243.36 625.59,242.95 627.25,243.18 C628.72,243.39 629.50,244.19 629.50,245.49 ZM 741.81 352.74 C741.63,353.69 740.69,354.63 739.74,354.81 C737.67,355.21 736.28,352.32 737.80,350.80 C739.32,349.28 742.21,350.67 741.81,352.74 ZM 695.68 231.40 C695.05,233.04 694.42,233.21 692.25,232.34 C690.59,231.67 690.65,229.35 692.34,228.70 C694.35,227.93 696.38,229.57 695.68,231.40 ZM 588.66 178.43 C587.97,180.24 585.44,180.52 584.44,178.90 C583.38,177.19 586.72,174.32 588.13,175.73 C588.75,176.35 588.99,177.57 588.66,178.43 ZM 529.82 225.66 C529.37,227.98 527.55,228.37 525.99,226.49 C525.05,225.35 524.99,224.61 525.78,223.82 C527.29,222.31 530.22,223.64 529.82,225.66 ZM 740.33 273.57 C740.03,274.36 739.15,275.00 738.36,275.00 C736.48,275.00 735.44,272.16 736.82,270.78 C738.27,269.33 741.10,271.59 740.33,273.57 ZM 689.59 318.44 L 688.50 314.98 L 687.70 318.07 C687.17,320.12 687.31,321.67 688.11,322.63 C689.99,324.89 690.85,322.46 689.59,318.44 ZM 567.82 170.66 C567.65,171.58 567.01,172.50 566.40,172.70 C564.74,173.25 562.98,170.65 563.96,169.07 C565.09,167.24 568.24,168.54 567.82,170.66 ZM 607.00 212.32 C607.00,210.95 603.92,209.09 602.53,209.63 C601.04,210.20 601.05,210.39 602.55,212.06 C603.94,213.59 607.00,213.78 607.00,212.32 ZM 653.00 161.00 C653.00,162.33 652.33,163.00 651.00,163.00 C649.67,163.00 649.00,162.33 649.00,161.00 C649.00,159.67 649.67,159.00 651.00,159.00 C652.33,159.00 653.00,159.67 653.00,161.00 ZM 641.50 215.99 C641.50,217.58 638.87,218.53 637.70,217.37 C636.13,215.79 637.06,213.87 639.25,214.18 C640.49,214.36 641.50,215.17 641.50,215.99 ZM 611.00 257.52 C611.00,256.82 610.38,255.73 609.62,255.10 C608.55,254.21 608.10,254.30 607.65,255.47 C607.33,256.31 607.31,257.65 607.61,258.44 C608.26,260.12 611.00,259.37 611.00,257.52 ZM 665.75 184.25 C665.19,185.92 662.36,186.40 661.48,184.97 C661.09,184.34 661.24,183.36 661.82,182.78 C663.16,181.44 666.30,182.61 665.75,184.25 ZM 616.81 157.74 C616.31,160.35 613.00,160.64 613.00,158.07 C613.00,156.64 613.64,156.00 615.07,156.00 C616.50,156.00 617.04,156.54 616.81,157.74 ZM 796.66 311.43 C796.33,312.29 795.63,313.00 795.09,313.00 C793.37,313.00 792.79,310.96 794.07,309.41 C795.59,307.59 797.55,309.12 796.66,311.43 ZM 574.82 194.67 C574.24,197.68 571.00,197.40 571.00,194.33 C571.00,193.60 571.93,193.00 573.07,193.00 C574.47,193.00 575.04,193.54 574.82,194.67 ZM 751.83 257.65 C751.64,258.65 750.65,259.64 749.65,259.83 C748.33,260.08 747.92,259.67 748.17,258.35 C748.36,257.35 749.35,256.36 750.35,256.17 C751.67,255.92 752.08,256.33 751.83,257.65 ZM 630.50 231.00 C630.50,231.81 629.71,232.62 628.75,232.81 C627.52,233.05 627.00,232.51 627.00,231.00 C627.00,229.49 627.52,228.95 628.75,229.19 C629.71,229.38 630.50,230.19 630.50,231.00 ZM 700.55 303.91 C700.18,304.51 699.49,305.00 699.00,305.00 C697.46,305.00 696.73,302.87 697.89,301.71 C699.27,300.33 701.58,302.25 700.55,303.91 ZM 697.00 325.67 C697.00,323.81 696.04,323.05 694.47,323.65 C692.79,324.29 693.72,327.00 695.61,327.00 C696.37,327.00 697.00,326.40 697.00,325.67 ZM 598.00 269.50 C598.00,270.33 597.11,271.00 596.00,271.00 C594.89,271.00 594.00,270.33 594.00,269.50 C594.00,268.67 594.89,268.00 596.00,268.00 C597.11,268.00 598.00,268.67 598.00,269.50 ZM 749.00 323.50 C749.00,324.33 748.11,325.00 747.00,325.00 C745.89,325.00 745.00,324.33 745.00,323.50 C745.00,322.67 745.89,322.00 747.00,322.00 C748.11,322.00 749.00,322.67 749.00,323.50 ZM 716.00 310.95 C716.00,312.28 713.13,313.02 712.42,311.87 C711.57,310.49 713.52,308.59 714.91,309.45 C715.51,309.82 716.00,310.49 716.00,310.95 ZM 647.50 202.17 C647.50,202.81 646.89,203.54 646.15,203.78 C645.31,204.06 644.94,203.61 645.15,202.56 C645.54,200.69 647.50,200.36 647.50,202.17 ZM 583.07 237.40 C582.67,235.58 582.86,233.75 583.77,232.40 C584.56,231.20 585.94,230.30 587.56,229.75 C587.26,229.87 586.97,230.00 586.68,230.15 C583.73,231.71 583.03,232.94 583.02,236.66 C583.01,236.90 583.03,237.15 583.07,237.40 ZM 581.51 261.50 C583.54,263.41 584.35,263.32 586.24,261.28 C585.53,262.28 584.64,263.00 583.85,263.00 C583.30,263.00 582.40,262.36 581.51,261.50 ZM 774.37 372.95 C775.70,373.57 776.64,373.84 777.42,373.81 C777.11,373.93 776.90,374.00 776.80,374.00 C776.56,374.00 775.65,373.60 774.37,372.95 ZM 635.77 332.67 C636.02,331.53 635.92,330.44 635.47,329.37 C635.80,330.09 636.00,330.81 636.00,331.38 C636.00,331.74 635.92,332.19 635.77,332.67 ZM 699.16 358.00 L 699.06 358.08 L 696.74 358.00 ZM 619.00 308.68 C618.72,310.40 618.29,311.61 617.75,312.25 C618.25,311.57 618.68,310.37 619.00,308.68 ZM 714.77 353.38 C713.10,353.94 711.34,355.20 708.66,357.61 C711.40,355.15 713.09,353.92 714.77,353.38 ZM 604.00 324.14 L 604.00 324.15 L 598.91 319.52 ZM 633.61 344.01 C632.83,344.44 632.22,344.63 631.95,344.47 C631.94,344.46 631.93,344.46 631.93,344.45 C632.20,344.61 632.83,344.43 633.61,344.01 ZM 594.85 229.61 C595.55,229.84 596.21,230.16 596.78,230.56 C596.79,230.57 596.81,230.58 596.83,230.59 C596.24,230.18 595.56,229.86 594.85,229.61 ZM 585.34 241.71 C585.03,241.38 584.74,241.02 584.49,240.65 C584.75,241.01 585.03,241.37 585.34,241.71 ZM 867.04 582.32 C866.70,582.06 866.39,581.92 866.12,581.91 C866.39,581.92 866.70,582.06 867.05,582.32 C867.10,582.36 867.17,582.43 867.26,582.53 C867.17,582.44 867.09,582.37 867.04,582.32 Z" fill="rgb(224,194,110)"/>
<path d="M 0.00 418.00 L 0.00 0.00 L 627.00 0.00 L 1254.00 0.00 L 1254.00 418.00 L 1254.00 836.00 L 627.00 836.00 L 0.00 836.00 L 0.00 418.00 ZM 446.20 626.70 C449.88,624.90 452.99,622.41 454.98,619.71 C460.31,612.46 461.00,608.20 461.00,582.32 L 461.00 559.00 L 455.00 559.00 L 449.00 559.00 L 448.96 580.75 C448.91,606.10 448.03,610.31 441.73,615.36 C438.43,618.01 437.19,618.38 431.57,618.38 C426.14,618.38 424.64,617.96 421.58,615.63 C419.60,614.12 417.01,611.00 415.83,608.69 C413.82,604.78 413.67,602.97 413.59,581.75 L 413.50 559.00 L 407.19 559.00 L 400.88 559.00 L 401.19 584.25 L 401.50 609.50 L 404.50 614.92 C410.20,625.23 419.82,630.24 433.00,629.76 C438.82,629.56 441.78,628.87 446.20,626.70 ZM 335.50 620.72 C339.09,613.33 339.78,612.51 342.25,612.56 C343.76,612.60 351.52,612.71 359.48,612.81 L 373.96 613.00 L 377.62 621.00 L 381.28 629.00 L 386.97 629.00 C390.10,629.00 392.93,628.74 393.24,628.42 C394.03,627.64 381.98,599.95 365.54,564.75 L 362.85 559.00 L 356.56 559.00 L 350.26 559.00 L 334.77 593.25 C326.25,612.09 319.47,627.84 319.70,628.25 C319.93,628.66 322.68,628.99 325.81,628.97 L 331.50 628.95 L 335.50 620.72 ZM 489.78 616.75 L 490.06 605.00 L 497.94 605.00 L 505.82 605.00 L 514.66 616.98 L 523.50 628.97 L 529.69 628.98 C533.10,628.99 536.12,628.62 536.40,628.16 C536.69,627.70 532.87,621.83 527.93,615.12 L 518.93 602.93 L 522.22 601.55 C530.69,598.01 535.02,591.10 534.98,581.17 C534.94,571.62 530.75,564.97 522.49,561.35 C519.23,559.92 514.70,559.52 497.75,559.20 L 477.00 558.80 L 477.00 593.23 C477.00,612.17 477.32,627.99 477.71,628.38 C478.10,628.77 480.91,628.96 483.96,628.79 L 489.50 628.50 L 489.78 616.75 ZM 561.76 593.75 L 562.03 559.00 L 556.01 559.00 L 550.00 559.00 L 550.00 594.05 L 550.00 629.10 L 555.75 628.80 L 561.50 628.50 L 561.76 593.75 ZM 626.00 623.52 L 626.00 618.05 L 608.75 617.77 L 591.50 617.50 L 591.23 588.25 L 590.97 559.00 L 584.98 559.00 L 579.00 559.00 L 579.00 594.00 L 579.00 629.00 L 602.50 629.00 L 626.00 629.00 L 626.00 623.52 ZM 688.61 623.75 C688.68,621.14 688.68,618.91 688.61,618.80 C688.55,618.70 679.72,618.36 669.00,618.05 L 649.50 617.50 L 649.21 608.27 L 648.93 599.05 L 666.21 598.77 L 683.50 598.50 L 683.82 594.62 C683.99,592.48 683.68,590.28 683.12,589.72 C682.52,589.12 676.01,588.74 667.06,588.79 C648.69,588.88 649.00,589.07 649.00,577.95 L 649.00 570.04 L 668.25 569.77 L 687.50 569.50 L 687.80 564.25 L 688.10 559.00 L 662.55 559.00 L 637.00 559.00 L 637.00 593.33 C637.00,612.22 637.31,627.97 637.68,628.35 C638.06,628.73 649.65,628.91 663.43,628.77 L 688.50 628.50 L 688.61 623.75 ZM 711.06 620.50 L 714.98 612.00 L 732.24 612.00 L 749.50 612.01 L 753.50 620.25 L 757.50 628.50 L 762.89 628.81 C765.86,628.98 768.62,628.75 769.04,628.31 C769.76,627.54 765.14,616.83 746.81,576.75 L 738.70 559.00 L 732.47 559.00 L 726.24 559.00 L 719.71 573.25 C716.12,581.09 711.74,590.88 709.98,595.00 C708.22,599.12 704.35,607.94 701.39,614.58 C698.42,621.23 696.00,627.19 696.00,627.83 C696.00,628.58 697.99,629.00 701.56,629.00 L 707.13 629.00 L 711.06 620.50 ZM 792.00 617.00 L 792.00 605.00 L 800.25 605.00 L 808.50 605.00 L 817.03 616.75 L 825.55 628.50 L 832.28 628.80 C836.88,629.00 839.00,628.73 839.00,627.93 C839.00,626.84 836.42,623.04 826.31,609.22 L 822.12 603.50 L 825.37 601.50 C835.11,595.50 837.41,591.58 837.39,581.00 C837.35,563.83 828.54,559.00 797.29,559.00 L 780.00 559.00 L 780.00 593.33 C780.00,612.22 780.30,627.97 780.67,628.33 C781.03,628.70 783.73,629.00 786.67,629.00 L 792.00 629.00 L 792.00 617.00 ZM 863.64 627.78 C864.05,627.10 864.31,617.54 864.20,606.53 C863.98,584.79 864.50,580.39 867.04,582.32 C869.17,583.95 900.00,623.66 900.00,624.78 C900.00,627.28 903.93,629.11 908.64,628.81 L 913.50 628.50 L 913.76 594.07 C913.97,567.19 913.75,559.46 912.76,558.83 C911.14,557.80 903.88,557.79 902.27,558.81 C901.37,559.39 900.97,565.71 900.77,582.51 L 900.50 605.43 L 892.50 595.10 C888.10,589.41 883.15,583.07 881.50,581.01 C879.85,578.94 875.15,572.90 871.05,567.58 L 863.60 557.91 L 858.05 558.21 L 852.50 558.50 L 852.36 590.50 C852.29,608.10 852.45,623.96 852.73,625.75 C853.21,628.90 853.38,629.00 858.05,629.00 C860.78,629.00 863.21,628.47 863.64,627.78 ZM 605.05 510.50 C610.19,505.27 614.93,501.00 615.60,501.00 C616.26,501.00 620.73,505.27 625.53,510.50 L 634.25 520.00 L 641.56 520.00 C645.59,520.00 649.11,519.62 649.40,519.16 C649.68,518.70 649.23,517.35 648.40,516.16 C647.17,514.41 645.89,514.00 641.57,514.00 L 636.25 514.00 L 627.63 503.92 L 619.00 493.84 L 619.00 483.57 C619.00,474.58 618.75,473.09 617.00,471.50 C615.58,470.22 615.00,468.42 615.00,465.32 C615.00,461.67 615.40,460.78 617.43,459.85 C620.70,458.36 624.88,459.56 625.91,462.28 C627.03,465.25 626.09,471.03 624.37,471.69 C623.36,472.08 623.00,474.40 623.00,480.58 L 623.00 488.95 L 632.62 498.97 L 642.25 509.00 L 647.28 509.00 C651.94,509.00 652.69,509.36 657.62,514.02 L 662.93 519.05 L 678.95 518.95 C687.77,518.89 695.21,518.47 695.50,518.00 C695.78,517.54 694.83,516.22 693.37,515.08 C691.01,513.22 689.38,513.00 677.99,513.00 C667.31,513.00 665.02,512.73 663.87,511.33 C663.12,510.42 660.32,507.94 657.66,505.83 C653.77,502.75 651.99,502.00 648.57,502.00 C644.63,502.00 643.85,501.50 637.66,495.10 L 631.00 488.19 L 631.00 474.29 L 631.00 460.39 L 627.50 457.00 L 624.00 453.61 L 624.00 442.98 C624.00,432.93 623.86,432.22 621.50,430.00 C618.24,426.94 618.23,422.68 621.45,419.45 C624.58,416.33 628.42,416.33 631.55,419.45 C634.74,422.64 634.64,424.20 631.00,428.35 C628.11,431.64 628.00,432.11 628.00,441.48 C628.00,450.99 628.06,451.26 631.00,454.00 L 634.00 456.80 L 634.00 470.58 L 634.00 484.35 L 641.40 491.76 C646.98,497.34 649.37,499.08 651.08,498.83 C652.32,498.65 653.53,497.95 653.75,497.27 C653.97,496.59 650.74,492.46 646.58,488.08 L 639.00 480.13 L 638.85 469.81 C638.77,464.14 638.78,458.37 638.88,456.98 C639.01,455.25 637.95,453.37 635.53,451.03 C632.24,447.84 632.00,447.19 632.00,441.43 C632.00,434.47 633.24,432.67 637.68,433.18 C641.57,433.62 641.77,436.27 638.03,437.68 C634.00,439.21 634.12,441.76 638.50,447.00 C640.42,449.30 642.02,451.93 642.06,452.84 C642.09,453.76 642.06,459.80 642.00,466.27 L 641.90 478.04 L 649.70 486.44 C653.99,491.06 659.53,497.69 662.01,501.17 L 666.52 507.50 L 680.50 507.78 L 694.48 508.06 L 697.99 511.36 C706.65,519.52 704.25,519.00 733.51,519.00 C755.52,519.00 759.95,518.76 760.99,517.51 C761.67,516.69 761.96,515.34 761.64,514.51 C761.17,513.29 758.92,513.00 749.71,513.00 L 738.36 513.00 L 728.26 504.04 C722.71,499.11 717.88,494.61 717.53,494.04 C717.11,493.37 708.52,493.00 693.14,493.00 C665.68,493.00 668.34,493.85 655.41,480.92 L 648.32 473.82 L 647.67 442.68 L 647.02 411.53 L 649.26 408.38 C650.49,406.65 653.66,402.93 656.29,400.12 L 661.08 395.00 L 668.85 395.00 C676.19,395.00 676.79,395.17 679.51,398.01 C681.64,400.23 682.46,402.14 682.62,405.24 C683.02,413.17 691.00,416.72 696.36,411.36 C699.36,408.37 699.69,405.23 697.47,400.95 C696.18,398.44 695.36,398.00 692.01,398.00 C688.75,398.00 687.18,397.21 683.00,393.50 C678.31,389.33 677.53,389.00 672.47,389.00 C669.46,389.00 667.00,388.62 667.00,388.16 C667.00,386.58 679.82,375.00 681.58,375.00 C682.54,375.00 689.00,380.61 695.94,387.48 C707.87,399.28 708.55,400.16 708.55,403.92 C708.55,409.25 711.98,413.00 716.86,413.00 C721.69,413.00 725.01,409.76 724.97,405.08 C724.92,399.92 722.81,397.69 717.36,397.04 C714.06,396.66 712.31,395.86 711.24,394.25 L 709.76 392.00 L 722.88 392.00 L 736.00 392.00 L 736.00 395.38 C736.00,399.29 736.07,399.36 746.09,404.77 L 753.68 408.87 L 761.83 404.19 L 769.99 399.50 L 769.99 390.20 L 770.00 380.91 L 766.89 379.20 C765.18,378.27 761.92,376.27 759.64,374.77 C757.36,373.27 754.60,372.04 753.50,372.04 C752.40,372.04 748.04,374.05 743.82,376.51 C737.52,380.18 736.08,381.49 735.82,383.75 L 735.50 386.50 L 719.68 386.78 L 703.85 387.05 L 697.68 381.04 L 691.50 375.04 L 700.77 375.02 L 710.04 375.00 L 714.57 370.82 L 719.10 366.65 L 740.41 366.20 L 761.71 365.74 L 768.78 369.87 C772.67,372.14 776.28,374.00 776.80,374.00 C777.33,374.00 781.30,372.04 785.63,369.65 L 793.50 365.30 L 793.78 355.78 L 794.07 346.27 L 786.78 341.88 C776.20,335.51 776.90,335.57 769.74,340.37 C766.24,342.72 762.62,344.93 761.69,345.29 C760.31,345.82 760.00,347.32 760.00,353.47 L 760.00 361.00 L 738.97 361.00 L 717.94 361.00 L 712.88 365.00 L 707.82 369.00 L 692.86 369.00 L 677.89 369.00 L 662.32 384.25 C653.76,392.64 646.14,400.09 645.38,400.81 C643.85,402.28 642.00,401.59 642.00,399.55 C642.00,398.81 649.92,390.51 659.59,381.11 L 677.19 364.00 L 688.03 364.00 C693.99,364.00 699.92,363.60 701.20,363.11 C702.48,362.63 705.84,360.15 708.66,357.61 C712.61,354.06 714.57,353.00 717.15,353.00 C722.78,353.00 726.83,351.32 731.78,346.94 C738.91,340.63 740.29,340.22 744.02,343.36 C748.83,347.41 755.51,346.79 758.33,342.02 C760.59,338.18 760.43,335.61 757.72,332.46 C754.38,328.57 748.88,328.76 744.60,332.90 C742.32,335.12 740.45,336.00 738.04,336.00 C735.33,336.00 733.56,337.07 728.91,341.50 C723.16,346.99 723.13,347.00 716.79,347.00 L 710.43 347.00 L 705.00 352.50 L 699.57 358.00 L 692.28 358.00 C687.66,358.00 685.00,357.60 685.00,356.90 C685.00,356.30 688.04,352.66 691.75,348.82 L 698.49 341.83 L 698.86 333.67 C699.14,327.61 699.72,324.90 701.12,323.12 C703.57,320.00 703.51,315.92 700.96,312.67 C695.94,306.29 685.12,309.45 685.03,317.32 C684.99,321.19 686.52,323.70 690.03,325.52 C692.84,326.97 693.00,327.38 693.00,333.28 L 693.00 339.50 L 682.18 350.27 C676.24,356.19 671.06,360.73 670.68,360.35 C670.31,359.97 670.00,355.77 670.00,351.01 C670.00,342.81 670.16,342.18 673.00,339.00 C676.64,334.92 676.81,331.72 673.55,328.45 C669.09,324.00 662.71,325.52 655.76,332.70 L 652.01 336.57 L 651.42 350.04 L 650.82 363.50 L 645.33 369.10 C640.56,373.98 639.89,375.15 640.18,378.10 C640.59,382.42 643.46,383.30 644.43,379.41 C644.81,377.92 647.77,373.94 651.02,370.55 L 656.94 364.40 L 657.22 351.96 C657.47,340.91 657.70,339.49 659.30,339.18 C663.31,338.41 664.00,340.58 664.00,353.91 L 664.00 366.57 L 646.46 383.90 C629.38,400.77 628.86,401.18 626.96,399.46 C625.14,397.82 625.00,396.28 625.00,378.42 L 625.00 359.15 L 635.00 349.90 L 645.00 340.65 L 645.00 331.02 L 645.00 321.39 L 656.84 309.70 C663.36,303.26 669.41,298.00 670.30,298.00 C672.90,298.00 676.00,293.91 676.00,290.49 C676.00,285.75 672.14,282.55 667.36,283.33 C661.94,284.21 660.62,286.00 660.79,292.27 L 660.93 297.61 L 649.96 308.54 L 639.00 319.47 L 639.00 329.64 C639.00,339.79 638.99,339.83 635.92,342.42 C634.22,343.85 632.42,344.76 631.92,344.45 C630.23,343.41 630.98,339.82 633.50,336.82 C634.88,335.18 636.00,332.73 636.00,331.38 C636.00,330.02 634.88,327.86 633.50,326.59 C631.33,324.58 631.00,323.41 631.00,317.86 L 631.00 311.45 L 638.00 304.50 L 645.00 297.55 L 645.00 282.34 C645.00,267.44 645.05,267.12 647.25,266.45 C654.33,264.31 656.25,257.07 650.92,252.59 C647.39,249.62 645.11,249.37 640.96,251.52 C637.30,253.42 636.35,256.96 638.07,262.34 C638.97,265.19 639.31,271.07 639.14,281.00 L 638.89 295.50 L 631.92 302.00 L 624.95 308.50 L 624.97 316.60 C625.00,323.44 624.69,324.97 623.00,326.50 C620.10,329.13 620.34,334.44 623.50,337.19 C625.60,339.01 626.00,340.24 626.00,344.88 C626.00,349.75 625.62,350.80 622.76,353.75 C619.53,357.08 619.52,357.10 619.01,369.79 C618.59,380.19 618.23,382.50 617.00,382.50 C615.84,382.50 615.44,380.92 615.21,375.45 C614.93,368.52 614.84,368.33 609.93,363.12 L 604.94 357.83 L 606.97 354.55 C609.66,350.20 609.53,347.44 606.50,344.41 C604.21,342.12 604.00,341.17 604.00,333.02 L 604.00 324.14 L 596.00 316.88 L 588.00 309.62 L 588.00 288.22 C588.00,268.33 588.14,266.64 590.00,264.27 C596.96,255.42 584.83,244.48 577.59,253.08 C573.87,257.49 574.17,261.25 578.50,264.71 L 582.00 267.50 L 582.00 289.08 L 582.00 310.65 L 589.98 318.42 L 597.97 326.19 L 598.59 333.85 C599.19,341.19 599.11,341.60 596.61,343.92 C594.67,345.72 594.00,347.34 594.00,350.19 C594.00,353.60 594.83,354.89 601.50,361.87 L 609.00 369.72 L 609.00 383.67 L 609.00 397.62 L 606.25 399.63 C604.74,400.73 603.01,401.92 602.41,402.27 C601.81,402.63 593.12,394.81 582.91,384.71 L 564.50 366.50 L 564.81 353.74 C565.11,341.34 565.19,340.92 567.64,339.31 C571.40,336.85 571.96,338.60 572.02,353.00 L 572.07 365.50 L 581.95 375.67 C587.38,381.26 592.09,385.57 592.41,385.25 C592.74,384.93 593.00,383.32 593.00,381.68 C593.00,379.24 591.50,377.25 585.00,371.00 L 577.00 363.32 L 577.00 349.81 L 577.00 336.30 L 571.07 330.65 C566.22,326.03 564.52,325.00 561.71,325.00 C553.70,325.00 549.82,333.97 555.54,339.27 C557.97,341.53 558.07,342.03 557.79,351.56 L 557.50 361.50 L 546.25 350.56 L 535.00 339.62 L 535.00 332.81 C535.00,327.75 535.35,326.00 536.35,326.00 C539.02,326.00 543.00,321.21 543.00,318.00 C543.00,310.75 533.62,307.28 528.33,312.58 C526.16,314.74 525.84,315.78 526.29,319.15 C526.59,321.35 527.54,323.94 528.42,324.91 C529.58,326.19 530.00,328.75 530.00,334.56 L 530.00 342.46 L 537.73 350.23 L 545.45 358.00 L 536.94 358.00 L 528.42 358.00 L 523.50 353.00 C518.64,348.06 518.50,348.00 512.34,348.00 C506.21,348.00 506.02,347.91 500.44,342.75 C494.21,336.99 492.80,336.17 488.83,336.07 C487.26,336.03 484.91,334.76 483.15,333.00 C478.56,328.41 471.36,329.30 469.11,334.73 C467.51,338.60 469.01,342.44 472.91,344.45 C476.90,346.52 479.22,346.40 482.27,344.00 C483.75,342.84 486.33,342.00 488.42,342.00 C491.39,342.00 493.06,342.96 498.00,347.50 C503.81,352.84 504.15,353.00 509.75,353.00 C515.31,353.00 515.74,353.20 521.82,358.50 L 528.13 364.00 L 539.90 364.00 L 551.68 364.00 L 569.87 381.62 C584.43,395.73 587.83,399.51 586.91,400.61 C585.49,402.32 584.44,401.48 565.67,383.64 L 551.85 370.50 L 535.96 370.00 L 520.08 369.50 L 515.75 365.25 L 511.42 361.00 L 489.76 361.00 L 468.09 361.00 L 467.79 353.85 C467.55,347.98 467.15,346.51 465.54,345.60 C464.46,345.00 460.74,342.77 457.29,340.66 L 451.01 336.82 L 444.25 340.66 C440.54,342.77 436.70,344.83 435.71,345.23 C434.14,345.87 433.96,347.13 434.21,355.69 L 434.50 365.42 L 442.50 370.17 C446.90,372.79 450.75,374.94 451.06,374.96 C451.37,374.98 454.61,373.20 458.26,371.00 L 464.89 367.00 L 487.38 367.00 L 509.88 367.00 L 514.50 371.00 L 519.12 375.00 L 528.28 375.00 L 537.44 375.00 L 531.48 381.02 L 525.52 387.05 L 509.57 386.77 L 493.63 386.50 L 492.83 383.44 C492.20,381.00 490.55,379.53 484.72,376.19 C480.69,373.89 476.51,372.00 475.43,372.00 C474.34,372.00 469.98,374.04 465.73,376.52 C457.08,381.59 457.30,381.04 458.64,393.85 L 459.28 399.99 L 467.52 404.48 L 475.75 408.97 L 484.37 404.25 C492.85,399.62 493.00,399.47 493.00,395.77 L 493.00 392.00 L 506.00 392.00 C513.15,392.00 519.00,392.30 519.00,392.67 C519.00,394.59 515.34,397.00 512.42,397.00 C508.45,397.00 505.00,400.81 505.00,405.18 C505.00,409.16 509.24,413.00 513.65,413.00 C518.59,413.00 521.00,410.10 521.00,404.17 L 521.00 399.34 L 533.41 387.17 C540.24,380.48 546.58,375.00 547.51,375.00 C549.55,375.00 563.17,387.92 562.41,389.14 C562.12,389.61 559.37,390.00 556.30,390.00 C551.18,390.00 550.37,390.33 546.38,394.00 C542.85,397.26 541.31,398.00 538.09,398.00 C533.49,398.00 530.00,401.45 530.00,406.00 C530.00,409.70 534.42,414.00 538.21,414.00 C542.36,414.00 547.00,409.19 547.00,404.87 C547.00,402.54 547.92,400.64 550.20,398.30 C553.27,395.13 553.69,395.00 561.11,395.00 L 568.82 395.00 L 575.41 402.36 L 582.00 409.73 L 582.00 441.52 L 582.00 473.32 L 575.75 479.41 C572.31,482.76 567.59,487.19 565.25,489.25 L 560.99 493.00 L 537.00 493.00 L 513.00 493.00 L 502.25 502.97 L 491.50 512.94 L 479.72 512.97 C469.73,513.00 467.84,513.25 467.31,514.64 C465.83,518.50 469.13,519.00 496.25,519.00 L 522.11 519.00 L 528.15 514.11 L 534.20 509.22 L 548.19 508.84 L 562.19 508.45 L 566.09 504.27 C568.24,501.96 570.00,499.10 570.00,497.91 C570.00,496.54 573.15,492.52 578.60,486.95 L 587.21 478.16 L 587.35 460.14 L 587.50 442.12 L 590.77 438.92 C593.86,435.90 593.96,435.59 592.52,433.39 C590.31,430.02 590.54,424.32 592.93,423.04 C595.70,421.55 600.55,421.76 601.93,423.41 C602.57,424.19 603.35,426.39 603.66,428.30 C604.19,431.57 603.81,432.18 597.61,438.04 L 591.00 444.30 L 591.00 462.18 L 591.00 480.07 L 583.33 487.38 C575.68,494.66 574.59,497.14 578.39,498.60 C580.50,499.40 587.18,494.61 592.15,488.71 L 596.50 483.55 L 596.68 466.63 L 596.86 449.71 L 602.18 444.32 L 607.50 438.93 L 607.69 425.72 L 607.89 412.50 L 611.44 409.50 C614.99,406.51 615.00,406.48 615.00,398.22 C615.00,391.68 615.32,389.81 616.54,389.35 C619.03,388.39 619.35,389.53 619.13,398.75 C618.94,407.26 618.84,407.58 615.46,411.04 L 612.00 414.58 L 612.00 427.27 L 612.00 439.95 L 606.53 445.73 L 601.06 451.50 L 601.03 468.34 C601.00,487.38 601.64,485.54 591.32,496.25 C586.26,501.50 585.40,502.00 581.48,502.00 C578.00,502.00 576.25,502.73 572.34,505.83 C569.68,507.94 566.88,510.42 566.13,511.33 C564.98,512.73 562.70,513.00 552.19,513.00 C540.67,513.00 539.44,513.18 537.31,515.17 C536.04,516.37 535.00,517.72 535.00,518.17 C535.00,518.63 542.24,519.00 551.09,519.00 L 567.18 519.00 L 572.79 514.00 C577.78,509.55 578.90,509.00 582.97,509.00 C587.41,509.00 587.80,508.74 596.67,499.75 L 605.80 490.50 L 606.48 473.00 L 607.16 455.50 L 612.80 449.75 C615.90,446.59 618.79,444.00 619.22,444.00 C621.39,444.00 619.49,448.08 615.50,452.00 L 611.00 456.42 L 611.00 475.58 L 611.00 494.75 L 602.33 504.37 L 593.66 514.00 L 588.49 514.00 C584.64,514.00 582.86,514.50 581.56,515.94 C578.80,518.98 580.52,520.00 588.42,520.00 L 595.72 520.00 L 605.05 510.50 ZM 622.81 465.74 C623.06,464.45 622.48,464.00 620.57,464.00 C618.13,464.00 617.13,465.80 618.70,467.37 C619.91,468.57 622.46,467.56 622.81,465.74 ZM 478.81 429.74 C479.21,427.67 476.32,426.28 474.80,427.80 C473.28,429.32 474.67,432.21 476.74,431.81 C477.69,431.63 478.63,430.69 478.81,429.74 ZM 599.79 428.86 C600.14,427.04 597.12,425.48 595.80,426.80 C594.48,428.12 596.04,431.14 597.86,430.79 C598.75,430.62 599.62,429.75 599.79,428.86 ZM 628.82 424.25 C629.08,422.43 628.66,422.00 626.63,422.00 C623.78,422.00 622.55,423.38 623.41,425.62 C624.31,427.97 628.44,426.93 628.82,424.25 ZM 758.96 418.54 C760.34,416.89 759.56,415.00 757.50,415.00 C755.66,415.00 754.85,416.45 755.60,418.41 C756.36,420.39 757.40,420.43 758.96,418.54 ZM 499.81 411.74 C500.21,409.67 497.32,408.28 495.80,409.80 C494.28,411.32 495.67,414.21 497.74,413.81 C498.69,413.63 499.63,412.69 499.81,411.74 ZM 452.34 410.83 C454.66,407.14 449.80,404.13 446.98,407.52 C445.95,408.76 446.05,409.40 447.54,411.04 C449.54,413.25 450.85,413.19 452.34,410.83 ZM 603.80 395.80 C604.59,395.01 604.99,390.83 604.98,383.55 L 604.97 372.50 L 597.48 365.08 L 590.00 357.67 L 590.00 342.60 L 590.00 327.53 L 575.98 314.02 L 561.97 300.50 L 562.01 294.50 C562.04,290.84 562.64,287.74 563.53,286.56 C566.81,282.22 564.01,276.00 558.77,276.00 C552.63,276.00 550.11,281.33 553.94,286.20 C555.27,287.88 555.96,290.52 556.12,294.48 C556.33,299.62 556.80,300.80 560.23,304.76 C564.03,309.15 564.61,311.01 561.66,309.34 C560.84,308.88 557.23,305.70 553.63,302.28 C546.06,295.07 545.86,294.45 546.28,278.40 C546.54,267.99 546.73,267.11 549.28,264.08 C552.39,260.38 552.58,259.02 550.54,255.07 C548.88,251.86 547.21,251.00 542.64,251.00 C537.65,251.00 535.00,253.42 535.00,257.97 C535.00,260.96 535.67,262.47 538.00,264.66 C540.42,266.95 541.00,268.32 541.00,271.75 C541.00,274.09 540.63,276.00 540.17,276.00 C539.71,276.00 536.56,273.49 533.17,270.42 L 527.00 264.83 L 527.00 255.55 L 527.00 246.27 L 518.81 241.63 C514.30,239.08 510.24,237.00 509.79,237.00 C509.33,237.00 505.36,239.09 500.98,241.63 L 493.00 246.27 L 493.00 255.58 L 493.00 264.90 L 501.45 269.50 L 509.90 274.11 L 515.30 271.55 C518.26,270.15 521.33,269.00 522.12,269.00 C524.15,269.00 541.00,286.19 541.00,288.27 C541.00,289.81 539.73,290.00 529.47,290.00 L 517.94 290.00 L 514.87 286.50 C512.07,283.32 511.30,283.00 506.45,283.00 C498.74,283.00 495.77,285.73 495.77,292.81 C495.77,298.43 496.82,300.34 501.13,302.57 C506.11,305.14 509.82,304.42 514.24,300.00 L 518.24 296.00 L 528.44 296.00 L 538.64 296.00 L 547.57 304.26 C560.03,315.78 561.96,317.04 566.14,316.36 C569.33,315.85 570.16,316.34 577.29,323.00 L 585.00 330.20 L 585.00 344.88 L 585.00 359.55 L 592.00 366.50 L 599.00 373.45 L 599.00 384.02 C599.00,393.76 599.75,397.00 602.00,397.00 C602.33,397.00 603.14,396.46 603.80,395.80 ZM 633.17 392.35 C634.77,390.90 635.00,389.01 635.00,377.62 L 635.00 364.56 L 640.64 358.86 C644.42,355.04 646.08,352.64 645.67,351.58 C645.34,350.71 644.65,350.00 644.15,350.00 C643.65,350.00 640.04,352.97 636.12,356.59 L 629.00 363.19 L 629.00 377.93 C629.00,394.63 629.34,395.81 633.17,392.35 ZM 786.96 391.55 C789.05,389.03 787.80,386.50 784.49,386.50 C782.10,386.50 781.43,386.98 781.16,388.89 C780.64,392.57 784.61,394.39 786.96,391.55 ZM 508.50 377.50 C508.50,375.33 507.06,374.68 505.06,375.94 C503.86,376.70 503.84,377.11 504.96,378.46 C506.62,380.45 508.50,379.95 508.50,377.50 ZM 489.82 353.67 C490.03,352.58 489.48,352.00 488.24,352.00 C485.61,352.00 484.80,353.05 486.16,354.69 C487.57,356.40 489.39,355.89 489.82,353.67 ZM 741.81 352.74 C742.21,350.67 739.32,349.28 737.80,350.80 C736.28,352.32 737.67,355.21 739.74,354.81 C740.69,354.63 741.63,353.69 741.81,352.74 ZM 807.42 350.39 C809.35,349.65 809.47,347.63 807.67,346.14 C806.68,345.32 805.85,345.39 804.46,346.41 C802.86,347.58 802.78,348.03 803.91,349.39 C805.44,351.23 805.32,351.20 807.42,350.39 ZM 615.82 333.65 L 616.15 320.40 L 607.95 312.70 L 599.76 304.99 L 600.19 295.97 L 600.62 286.94 L 606.31 281.19 L 612.00 275.44 L 612.00 265.62 L 612.00 255.81 L 605.50 249.07 C599.23,242.57 599.00,242.16 599.00,237.23 C599.00,233.08 598.58,231.82 596.78,230.56 C593.10,227.98 586.05,228.98 583.77,232.40 C581.93,235.14 583.02,239.84 586.08,242.41 C587.77,243.83 589.83,245.00 590.66,245.00 C591.48,245.00 595.50,248.00 599.58,251.67 L 607.00 258.34 L 607.00 265.45 L 607.00 272.56 L 601.00 278.50 L 595.00 284.44 L 595.00 295.83 L 595.00 307.23 L 602.40 314.86 L 609.80 322.50 L 610.15 334.79 C610.42,344.32 610.83,347.28 611.99,347.99 C614.78,349.72 615.50,347.01 615.82,333.65 ZM 509.56 334.88 C509.01,330.60 508.17,329.47 498.52,319.97 L 488.07 309.69 L 487.79 301.24 L 487.50 292.78 L 479.34 287.79 L 471.19 282.80 L 468.34 284.76 C466.78,285.84 463.13,288.19 460.24,289.97 C457.33,291.77 454.74,294.18 454.44,295.37 C454.15,296.56 454.04,300.89 454.20,305.01 L 454.50 312.50 L 462.84 316.84 L 471.18 321.18 L 476.98 318.09 C480.17,316.39 483.31,315.00 483.96,315.00 C484.62,315.00 489.39,318.94 494.57,323.75 C502.93,331.51 504.00,332.89 504.00,335.92 C504.00,337.80 504.77,340.20 505.71,341.24 C507.37,343.06 507.48,343.07 508.79,341.32 C509.72,340.08 509.96,338.02 509.56,334.88 ZM 724.05 337.50 C724.35,335.30 725.02,332.81 725.55,331.98 C726.83,329.92 742.69,315.00 743.59,315.00 C743.98,315.00 747.11,316.43 750.55,318.18 L 756.80 321.35 L 764.15 317.53 C774.29,312.27 774.01,312.61 773.94,305.63 C773.85,295.29 772.88,291.88 769.50,290.01 C767.85,289.10 764.15,287.09 761.28,285.54 L 756.07 282.72 L 749.28 287.05 C738.57,293.88 739.00,293.25 739.00,302.24 L 739.00 310.18 L 729.00 319.86 L 719.00 329.53 L 719.00 335.84 C719.00,341.80 719.12,342.12 721.25,341.82 C723.04,341.57 723.61,340.68 724.05,337.50 ZM 430.81 332.74 C431.06,331.45 430.48,331.00 428.57,331.00 C426.13,331.00 425.13,332.80 426.70,334.37 C427.91,335.57 430.46,334.56 430.81,332.74 ZM 784.80 324.80 C787.71,321.89 784.05,316.21 780.07,317.48 C777.55,318.28 776.32,322.47 778.01,324.51 C779.50,326.30 783.14,326.46 784.80,324.80 ZM 749.00 323.50 C749.00,322.67 748.11,322.00 747.00,322.00 C745.89,322.00 745.00,322.67 745.00,323.50 C745.00,324.33 745.89,325.00 747.00,325.00 C748.11,325.00 749.00,324.33 749.00,323.50 ZM 656.00 322.00 C657.38,320.92 659.68,320.03 661.11,320.02 C663.11,320.01 666.57,317.15 675.71,308.00 L 687.70 296.00 L 698.18 296.00 C707.99,296.00 708.80,296.15 710.95,298.44 C714.74,302.48 719.10,304.09 723.21,302.95 C731.24,300.73 734.81,294.41 731.57,288.14 C727.65,280.55 715.44,280.10 710.68,287.36 C708.99,289.95 708.73,290.00 697.98,290.00 C687.11,290.00 687.00,289.98 687.00,287.64 C687.00,285.98 689.55,282.82 695.58,277.04 C704.92,268.08 704.35,268.25 713.27,271.67 L 718.03 273.50 L 723.27 270.75 C735.50,264.32 735.00,264.92 734.99,256.76 C734.98,252.77 734.72,248.54 734.40,247.37 C733.83,245.24 720.20,237.00 717.25,237.00 C715.54,237.00 703.55,243.60 701.47,245.68 C700.40,246.74 700.00,249.55 700.00,255.98 L 700.00 264.81 L 694.85 269.44 C692.02,271.99 689.21,273.91 688.60,273.71 C686.31,272.96 686.82,267.49 689.45,264.65 C692.73,261.11 692.96,255.18 689.92,252.43 C687.17,249.93 680.83,249.93 678.08,252.43 C674.93,255.28 675.17,262.23 678.50,264.41 C680.97,266.03 681.00,266.20 681.00,280.26 L 681.00 294.47 L 669.77 305.73 C662.60,312.92 657.77,317.00 656.44,317.00 C653.45,317.00 649.64,321.24 651.21,322.81 C652.76,324.36 653.04,324.31 656.00,322.00 ZM 445.81 313.74 C446.20,311.74 443.35,310.25 441.90,311.70 C440.50,313.10 441.97,316.15 443.86,315.79 C444.75,315.62 445.63,314.69 445.81,313.74 ZM 619.09 308.04 C619.58,304.42 620.49,302.89 624.09,299.70 C630.54,293.97 631.99,291.32 631.99,285.16 C632.00,281.34 632.57,279.09 634.00,277.27 C637.22,273.18 636.64,268.60 632.50,265.29 C630.12,263.40 629.00,261.67 629.00,259.92 C629.00,258.01 627.17,255.62 622.00,250.78 L 615.00 244.22 L 615.00 233.15 L 615.00 222.09 L 622.00 218.00 L 629.00 213.91 L 629.00 205.11 C629.00,197.96 628.67,196.03 627.25,194.84 C624.64,192.65 613.02,186.00 611.79,186.00 C611.20,186.00 607.17,188.10 602.83,190.66 L 594.93 195.33 L 595.21 204.41 L 595.50 213.50 L 602.21 218.00 L 608.93 222.50 L 608.96 234.12 L 609.00 245.74 L 616.50 253.07 C620.62,257.09 624.00,261.09 623.99,261.95 C623.99,262.80 623.09,264.85 622.00,266.50 C619.31,270.57 619.48,274.16 622.50,277.00 C624.58,278.95 625.00,280.28 625.00,284.83 C625.00,290.12 624.80,290.53 619.50,296.09 C614.36,301.47 614.00,302.18 614.00,306.76 C614.00,312.08 614.56,313.23 616.95,312.77 C617.96,312.58 618.71,310.91 619.09,308.04 ZM 716.00 310.95 C716.00,310.49 715.51,309.82 714.91,309.45 C713.52,308.59 711.57,310.49 712.42,311.87 C713.13,313.02 716.00,312.28 716.00,310.95 ZM 796.66 311.43 C797.55,309.12 795.59,307.59 794.07,309.41 C792.79,310.96 793.37,313.00 795.09,313.00 C795.63,313.00 796.33,312.29 796.66,311.43 ZM 650.66 302.88 L 656.00 298.76 L 656.00 288.60 L 656.00 278.44 L 662.50 272.00 L 669.00 265.56 L 669.01 254.53 L 669.02 243.50 L 676.01 239.19 C679.85,236.81 683.03,234.79 683.07,234.69 C683.66,233.06 683.84,218.22 683.27,217.46 C682.85,216.89 678.94,214.23 674.59,211.55 C666.94,206.82 666.61,206.71 664.09,208.25 C662.67,209.13 658.69,211.47 655.25,213.47 L 649.00 217.10 L 649.00 225.98 C649.00,235.95 649.11,236.13 658.37,241.04 L 663.00 243.50 L 663.00 253.61 L 663.00 263.72 L 656.50 269.78 L 650.00 275.83 L 650.00 286.73 L 650.00 297.63 L 646.50 300.73 C643.07,303.77 641.86,307.00 644.16,307.00 C644.79,307.00 647.72,305.15 650.66,302.88 ZM 576.82 289.88 L 576.50 274.75 L 570.24 269.13 L 563.99 263.50 L 564.06 253.50 L 564.13 243.50 L 570.31 239.50 L 576.50 235.50 L 576.79 226.44 C577.03,218.74 576.80,217.15 575.29,215.87 C572.95,213.90 561.09,207.00 560.05,207.00 C559.60,207.00 555.81,209.09 551.62,211.65 L 544.00 216.31 L 544.00 225.67 L 544.00 235.02 L 549.27 238.26 C552.18,240.04 555.44,242.00 556.52,242.61 C558.28,243.60 558.52,244.92 558.70,254.74 L 558.90 265.76 L 564.95 271.53 L 571.00 277.30 L 571.00 289.95 C571.00,303.06 571.55,305.00 575.27,305.00 C577.03,305.00 577.12,304.10 576.82,289.88 ZM 700.55 303.91 C701.58,302.25 699.27,300.33 697.89,301.71 C696.73,302.87 697.46,305.00 699.00,305.00 C699.49,305.00 700.18,304.51 700.55,303.91 ZM 615.83 287.63 C616.03,286.62 615.69,285.29 615.09,284.69 C613.56,283.16 610.51,286.28 611.36,288.50 C612.18,290.64 615.37,290.02 615.83,287.63 ZM 487.81 276.74 C488.19,274.78 485.80,273.48 483.46,274.38 C482.23,274.85 482.14,275.39 483.02,277.05 C484.32,279.46 487.32,279.27 487.81,276.74 ZM 740.33 273.57 C741.10,271.59 738.27,269.33 736.82,270.78 C735.44,272.16 736.48,275.00 738.36,275.00 C739.15,275.00 740.03,274.36 740.33,273.57 ZM 598.00 269.50 C598.00,268.67 597.11,268.00 596.00,268.00 C594.89,268.00 594.00,268.67 594.00,269.50 C594.00,270.33 594.89,271.00 596.00,271.00 C597.11,271.00 598.00,270.33 598.00,269.50 ZM 475.46 264.14 C476.45,261.00 475.02,258.86 472.13,259.20 C469.48,259.50 468.32,261.77 469.38,264.56 C470.20,266.69 474.75,266.37 475.46,264.14 ZM 751.83 257.65 C752.08,256.33 751.67,255.92 750.35,256.17 C749.35,256.36 748.36,257.35 748.17,258.35 C747.92,259.67 748.33,260.08 749.65,259.83 C750.65,259.64 751.64,258.65 751.83,257.65 ZM 629.50 245.49 C629.50,244.19 628.72,243.39 627.25,243.18 C625.59,242.95 625.00,243.36 625.00,244.76 C625.00,245.81 625.32,246.98 625.70,247.37 C627.03,248.69 629.50,247.47 629.50,245.49 ZM 630.50 231.00 C630.50,230.19 629.71,229.38 628.75,229.19 C627.52,228.95 627.00,229.49 627.00,231.00 C627.00,232.51 627.52,233.05 628.75,232.81 C629.71,232.62 630.50,231.81 630.50,231.00 ZM 695.68 231.40 C696.38,229.57 694.35,227.93 692.34,228.70 C690.65,229.35 690.59,231.67 692.25,232.34 C694.42,233.21 695.05,233.04 695.68,231.40 ZM 529.82 225.66 C530.22,223.64 527.29,222.31 525.78,223.82 C524.99,224.61 525.05,225.35 525.99,226.49 C527.55,228.37 529.37,227.98 529.82,225.66 ZM 706.17 218.75 C710.08,215.60 708.15,210.00 703.14,210.00 C699.82,210.00 698.00,211.64 698.00,214.63 C698.00,219.02 702.82,221.45 706.17,218.75 ZM 641.50 215.99 C641.50,215.17 640.49,214.36 639.25,214.18 C637.06,213.87 636.13,215.79 637.70,217.37 C638.87,218.53 641.50,217.58 641.50,215.99 ZM 647.50 202.17 C647.50,200.36 645.54,200.69 645.15,202.56 C644.94,203.61 645.31,204.06 646.15,203.78 C646.89,203.54 647.50,202.81 647.50,202.17 ZM 538.55 197.94 C540.88,195.37 539.53,192.65 535.72,192.19 C532.20,191.77 530.50,194.84 532.60,197.85 C534.50,200.55 536.17,200.57 538.55,197.94 ZM 574.82 194.67 C575.04,193.54 574.47,193.00 573.07,193.00 C571.93,193.00 571.00,193.60 571.00,194.33 C571.00,197.40 574.24,197.68 574.82,194.67 ZM 637.80 186.80 C640.60,183.99 638.49,179.00 634.50,179.00 C631.82,179.00 630.00,180.82 630.00,183.50 C630.00,186.18 631.82,188.00 634.50,188.00 C635.66,188.00 637.14,187.46 637.80,186.80 ZM 665.75 184.25 C666.30,182.61 663.16,181.44 661.82,182.78 C661.24,183.36 661.09,184.34 661.48,184.97 C662.36,186.40 665.19,185.92 665.75,184.25 ZM 588.66 178.43 C588.99,177.57 588.75,176.35 588.13,175.73 C586.72,174.32 583.38,177.19 584.44,178.90 C585.44,180.52 587.97,180.24 588.66,178.43 ZM 567.82 170.66 C568.24,168.54 565.09,167.24 563.96,169.07 C562.98,170.65 564.74,173.25 566.40,172.70 C567.01,172.50 567.65,171.58 567.82,170.66 ZM 653.00 161.00 C653.00,159.67 652.33,159.00 651.00,159.00 C649.67,159.00 649.00,159.67 649.00,161.00 C649.00,162.33 649.67,163.00 651.00,163.00 C652.33,163.00 653.00,162.33 653.00,161.00 ZM 616.81 157.74 C617.04,156.54 616.50,156.00 615.07,156.00 C613.64,156.00 613.00,156.64 613.00,158.07 C613.00,160.64 616.31,160.35 616.81,157.74 ZM 348.87 601.09 L 344.24 600.50 L 349.92 587.66 C353.05,580.60 355.98,574.84 356.44,574.85 C356.90,574.86 359.85,580.64 362.98,587.69 C367.84,598.59 368.45,600.60 367.10,601.18 C365.22,601.98 355.44,601.93 348.87,601.09 ZM 490.00 582.00 L 490.00 570.00 L 501.54 570.00 C511.02,570.00 513.76,570.35 516.92,571.96 C521.38,574.23 522.00,575.46 522.00,581.95 C522.00,591.36 517.26,593.99 500.25,593.99 L 490.00 594.00 L 490.00 582.00 ZM 723.25 601.36 C721.98,601.08 721.02,600.13 721.04,599.18 C721.11,596.68 731.42,574.47 732.41,574.69 C733.41,574.92 744.49,599.85 743.86,600.47 C743.18,601.15 725.72,601.90 723.25,601.36 ZM 792.67 593.25 C792.43,592.84 792.15,587.44 792.06,581.25 L 791.89 570.00 L 803.98 570.00 C821.26,570.00 825.00,571.95 825.00,580.98 C825.00,591.02 820.22,594.00 804.16,594.00 C798.09,594.00 792.92,593.66 792.67,593.25 ZM 502.00 512.14 C502.00,511.67 504.97,508.52 508.59,505.14 L 515.18 499.00 L 538.21 499.00 C558.57,499.00 561.10,499.17 560.00,500.50 C559.02,501.69 556.15,502.00 546.32,502.00 L 533.89 502.00 L 527.09 507.50 L 520.28 513.00 L 511.14 513.00 C506.11,513.00 502.00,512.61 502.00,512.14 ZM 704.84 509.44 C702.46,507.48 699.60,505.12 698.50,504.19 C696.92,502.85 693.70,502.40 683.08,502.00 C673.60,501.65 669.54,501.13 669.25,500.25 C668.92,499.27 673.85,499.00 691.70,499.00 L 714.56 499.00 L 720.81 505.31 C724.24,508.77 726.74,511.92 726.36,512.31 C725.98,512.69 721.96,513.00 717.43,513.00 C709.47,513.00 709.04,512.88 704.84,509.44 ZM 535.40 407.49 C533.33,404.33 535.04,401.75 538.91,402.20 C541.84,402.54 542.99,406.11 540.95,408.56 C539.18,410.69 537.26,410.32 535.40,407.49 ZM 511.05 407.24 C508.55,405.22 509.08,402.43 512.14,401.46 C515.88,400.27 518.60,405.00 515.80,407.80 C514.21,409.39 513.62,409.32 511.05,407.24 ZM 688.25 408.36 C685.05,407.02 688.14,401.49 691.70,402.18 C694.39,402.70 694.21,408.43 691.50,408.69 C690.40,408.79 688.94,408.64 688.25,408.36 ZM 714.75 407.92 C712.01,406.32 712.50,402.16 715.51,401.41 C720.02,400.28 722.60,404.25 719.43,407.43 C717.61,409.25 717.12,409.30 714.75,407.92 ZM 598.66 351.55 C597.70,349.05 599.06,346.87 601.38,347.20 C602.89,347.41 603.50,348.21 603.50,350.00 C603.50,352.91 599.65,354.15 598.66,351.55 ZM 474.20 340.80 C471.00,337.60 474.38,332.94 478.53,334.83 C481.37,336.12 481.69,338.16 479.43,340.43 C477.55,342.31 475.83,342.43 474.20,340.80 ZM 748.38 339.56 C747.32,336.78 748.46,334.50 750.90,334.50 C753.66,334.50 755.60,336.99 754.69,339.36 C753.91,341.39 749.14,341.54 748.38,339.56 ZM 558.57 335.67 C556.49,334.16 557.11,330.56 559.61,329.60 C563.38,328.15 566.64,332.96 563.80,335.80 C562.25,337.35 560.82,337.32 558.57,335.67 ZM 664.04 335.55 C661.99,333.08 663.21,330.53 666.59,330.20 C670.54,329.81 672.60,332.01 671.03,334.94 C669.75,337.34 665.81,337.68 664.04,335.55 ZM 626.05 333.56 C623.35,330.30 627.81,326.39 630.81,329.38 C632.08,330.66 632.21,331.44 631.38,332.77 C629.92,335.09 627.60,335.43 626.05,333.56 ZM 531.75 320.92 C528.26,318.89 530.32,314.00 534.66,314.00 C537.87,314.00 539.32,317.10 537.40,319.85 C535.74,322.21 534.40,322.47 531.75,320.92 ZM 690.93 319.42 C689.98,318.27 689.91,317.37 690.66,316.17 C693.19,312.13 699.26,314.77 697.03,318.94 C695.72,321.39 692.76,321.62 690.93,319.42 ZM 666.11 292.63 C664.46,290.65 665.83,288.00 668.50,288.00 C671.37,288.00 672.40,290.45 670.39,292.47 C668.50,294.36 667.57,294.39 666.11,292.63 ZM 580.93 260.93 C579.06,259.06 579.00,258.64 580.30,256.68 C582.36,253.56 584.62,253.48 586.57,256.46 C588.17,258.91 588.16,259.16 586.48,261.03 C584.23,263.51 583.50,263.50 580.93,260.93 ZM 642.67 261.33 C641.43,260.10 641.99,256.26 643.58,254.93 C645.49,253.35 648.31,254.74 648.86,257.54 C649.40,260.31 644.59,263.26 642.67,261.33 ZM 502.04 296.81 C499.59,294.18 499.51,293.14 501.56,290.22 C503.29,287.74 508.74,287.14 510.80,289.20 C512.79,291.19 512.23,295.73 509.78,297.44 C506.73,299.58 504.45,299.39 502.04,296.81 ZM 557.15 285.11 C555.13,283.83 556.20,280.55 558.76,280.18 C561.45,279.80 562.77,282.37 560.99,284.51 C559.58,286.22 559.03,286.30 557.15,285.11 ZM 540.57 261.43 C538.61,259.47 538.57,257.60 540.44,256.05 C542.75,254.14 546.45,255.16 546.83,257.81 C547.45,262.23 543.60,264.46 540.57,261.43 ZM 588.57 239.43 C586.61,237.47 586.57,235.60 588.44,234.05 C590.75,232.14 594.45,233.16 594.83,235.81 C595.45,240.23 591.60,242.46 588.57,239.43 ZM 716.41 295.50 C714.91,293.21 714.90,292.80 716.36,290.58 C718.53,287.27 721.56,286.48 724.55,288.44 C727.47,290.36 727.76,294.00 725.17,296.35 C722.42,298.83 718.34,298.44 716.41,295.50 ZM 681.38 260.56 C680.32,257.78 681.46,255.50 683.90,255.50 C687.06,255.50 688.85,258.28 687.07,260.42 C685.43,262.39 682.12,262.48 681.38,260.56 ZM 626.45 273.57 C624.89,272.41 624.72,271.76 625.61,270.31 C627.01,268.03 628.96,267.99 630.37,270.23 C631.21,271.55 631.10,272.33 629.94,273.49 C628.60,274.83 628.17,274.84 626.45,273.57 Z" fill="rgb(236,236,235)"/>
</g>
</svg>